<?xml version="1.0" encoding="UTF-8"?>
<!DOCTYPE svg PUBLIC "-//W3C//DTD SVG 1.1//EN" "http://www.w3.org/Graphics/SVG/1.1/DTD/svg11.dtd">
<!-- Creator: CorelDRAW 2021.5 -->
<svg xmlns="http://www.w3.org/2000/svg" xml:space="preserve" width="296.5mm" height="141mm" version="1.1" style="shape-rendering:geometricPrecision; text-rendering:geometricPrecision; image-rendering:optimizeQuality; fill-rule:evenodd; clip-rule:evenodd"
viewBox="0 0 29650 14100"
 xmlns:xlink="http://www.w3.org/1999/xlink"
 xmlns:xodm="http://www.corel.com/coreldraw/odm/2003">
 <defs>
  <style type="text/css">
   <![CDATA[
    .fil29 {fill:black}
    .fil27 {fill:#025BBD}
    .fil3 {fill:#025BBD}
    .fil40 {fill:#026AAC}
    .fil50 {fill:#035277}
    .fil4 {fill:#040B03}
    .fil18 {fill:#041202}
    .fil48 {fill:#050505}
    .fil52 {fill:#054D77}
    .fil35 {fill:#086AA9}
    .fil49 {fill:#095487}
    .fil33 {fill:#0996D1}
    .fil17 {fill:#0A1404}
    .fil42 {fill:#0B4659}
    .fil15 {fill:#0C130A}
    .fil37 {fill:#0C6779}
    .fil47 {fill:#0F3754}
    .fil41 {fill:#156A8E}
    .fil55 {fill:#172630}
    .fil9 {fill:#182508}
    .fil20 {fill:#1A250B}
    .fil21 {fill:#1B2313}
    .fil28 {fill:#1E1E1E}
    .fil46 {fill:#304854}
    .fil53 {fill:#343B44}
    .fil45 {fill:#39434B}
    .fil32 {fill:#42B6E9}
    .fil12 {fill:#43493A}
    .fil7 {fill:#445633}
    .fil30 {fill:#45B4E7}
    .fil54 {fill:#484E53}
    .fil25 {fill:#495546}
    .fil23 {fill:#596656}
    .fil14 {fill:#5A746C}
    .fil51 {fill:#5A768C}
    .fil10 {fill:#5C6B53}
    .fil11 {fill:#5D7454}
    .fil5 {fill:#5E764F}
    .fil6 {fill:#5E7651}
    .fil0 {fill:#5FCBF5}
    .fil16 {fill:#617655}
    .fil13 {fill:#627454}
    .fil19 {fill:#636D59}
    .fil22 {fill:#63745B}
    .fil43 {fill:#667987}
    .fil34 {fill:#7E8D98}
    .fil38 {fill:#83431D}
    .fil24 {fill:#8A8B8B}
    .fil39 {fill:#A3DCEC}
    .fil36 {fill:#B5832C}
    .fil2 {fill:#F7EF60}
    .fil1 {fill:#FAF67D}
    .fil8 {fill:#FAFCF6}
    .fil26 {fill:#FCD602}
    .fil44 {fill:#FDFBFC}
    .fil31 {fill:#FEFEFE}
   ]]>
  </style>
 </defs>
 <g id="Слой_x0020_1">
  <metadata id="CorelCorpID_0Corel-Layer"/>
  <g id="_859401888">
   <g>
    <path class="fil0" d="M9978.06 371.98l-3124.94 483.32 -1629.36 265.84c-192.63,164.2 -533.22,182.36 -840.62,278.85l-806.47 240.78 1033.58 -16.38 -436.39 312.12c207.78,23.65 393.19,96.6 452.66,113.63 -700.47,160.26 -1169.24,193.02 -1878.43,397.79 -322.34,136.91 -792.3,184.45 -1178.14,243.51 -125.78,19.26 -454.92,58.6 -556.36,86.75 -482,133.61 -86.53,4.48 -463.36,266.6l-564.41 206.04c1276.24,94.2 2233.7,-183.62 2681.1,-47.65 336.61,102.32 363.86,135.05 790.55,198.83l-206.34 353.04c216.18,40.19 190.55,22.4 307.38,100.5 16.56,11.09 39.14,30.4 54.45,43.12l135.28 172.68c660.52,-203.52 718.44,89.57 1505.18,108.72l94.05 255.5c651.51,-266.32 394.74,-272.94 1219.31,-270.55 537.27,1.54 1101,-83.25 1617.28,-58.79 -529.75,471.36 -3877.46,686.75 -4425.55,1136.15 783.13,175.31 1354.24,-98.69 2118.95,-37.4 -1023.53,602.99 -1398.19,492.43 -1757.04,742.94l879.29 329.46 -1301.82 463.17c-109.62,101.53 -34.02,-2.23 -100.53,112.16l486.74 109.31c20.03,8.67 51.2,25.95 74.56,42.57l23728.06 2.96c268.75,-144.19 139.84,33.89 262.88,-294.28 -427.91,-395.22 -1085.45,202.57 -2346.34,-382.66 262.85,-105.87 2985.72,283.79 3726.45,240.8 -288.58,-360.36 -1922.42,-792.02 -2600.68,-1054.6 482.05,-53.72 260.85,21.23 338.66,-231.1l-2228.07 -645.08c-15.52,-6.56 -44.61,-22.18 -66,-34.98 514.26,-27.82 1717.63,-27.9 2067.89,-284.03 -592.42,-531.8 -2360.52,-733.67 -3159.63,-794.57 -408.02,-31.11 -720.55,-164.42 -1089.32,-226.22 288.1,56.27 401.94,5.97 541.97,-127.18 -490.88,-198.31 -492.45,183.78 -966.79,-95.67 370.55,-219.55 1731.52,-55.19 2452.76,-282.57 149.04,-307 166.99,169.62 -14.74,-107.09 -96.06,-146.27 -56.4,-56.73 -79.31,-34.98l1386.97 -92.93c-389.2,-174.45 -979.54,-172.23 -1474.09,-196.82l752.87 -61.99c-345.38,-169.22 -454.45,-56.81 -832.71,-209.92l-155.7 -83.79c950.86,-227.28 3454.32,263.74 3596.85,-932.82 -809.03,-157.02 -1163.5,160.5 -2155.09,-183.54 -1537.47,-533.43 -4818.43,-733.26 -6481.26,-788.53 -1604.56,-53.31 -3184.85,-40.32 -4788.64,12.29 -838.07,27.5 -4089.67,371.94 -4597.59,256.69z"/>
    <path class="fil1" d="M924.47 8292.47c-98.16,262.87 -79.57,191.31 -156.4,481.52 620.79,17.47 1783.52,-223.2 2280.71,-80.29l528.72 376.45c360.87,636.88 102.29,295.63 715.74,448.74 273.65,68.31 42.78,-66.87 234.43,101.64 1061.66,16.38 830.92,208.04 1086.97,317.76 489.24,-407.39 1685.25,-286.25 2469.99,-273.05 -197.09,201.87 -606.95,295.83 -877.35,344.78 -535.54,96.97 -695.48,97.43 -1135.05,223.64 -635.22,182.34 -1627.07,135.56 -2090.77,497.53 382.72,236.38 1125.32,51.09 1600.46,46.12 -134.93,264.18 133.09,63.16 -249.44,315.68 -189.28,124.96 -684.01,112.59 -1073.48,403.54 394.67,193.48 242.16,-95.56 482.77,286.99 -297.38,208.5 -634.39,246.12 -974.97,162.13l17.65 366.74c1044.79,172.93 192.35,571.56 1626,209.11 466.05,-117.83 1250.7,-253.72 1773.44,-206.29 -144.31,302.45 -1885.46,688.38 -2361.61,944.73 16.45,225.37 -23.12,51.33 53.04,284.81l2416.28 -222.09c-217.04,418.73 -316.4,-164.63 -437.3,467.92 769.64,455.79 2195.22,-126.02 3110.14,97.08 335.99,-300.49 1366.03,-213.85 1797.28,-264.7 638.79,-75.33 1336.91,-202.78 2010.85,-80.75l4481.63 -201.68c286.43,-264.88 2141.3,-150.12 2521.19,-148.74 1007.11,3.69 6759.55,228.49 7207.38,99.12 370.16,-106.96 407.47,-239.32 461.36,-383.53 -1106.12,-242.32 -2321.09,-649.63 -3527.02,-731.85 -1371.55,-93.53 -2651.74,-166.26 -4014.71,-259.22 1314.06,-237.28 2961.29,-155.6 4388.5,-139.93 1301.42,14.29 3227.79,432.04 4326.28,287.83 -260.43,-375.77 -1760.3,-687.16 -2444.85,-992.15 -9.81,-67.07 203.04,-211.82 -282.69,-446.33 -520.15,-65.79 -511.24,-123.28 -975.98,-269.64 -251.7,-79.29 -652.92,-84.9 -872.28,-198.88 452.93,-229.33 1613.12,-84.06 2153.81,-268 -176.11,-361.62 -9.12,-92.82 -437.01,-264.37 -672.71,-269.71 -413.54,-313.48 -1751.17,-489.45 -996.09,-131.03 -1708.46,-77.75 -2431.17,-508.83 583.97,-500.79 856.23,166.74 2675.3,-439.34 329.4,-109.74 592.55,-68.9 875.18,-147.76 -257.22,-129.06 -706.73,-77.8 -1064.7,-84.31l155.09 -77.34c683.94,-205.96 -479.35,67.3 168.05,-50.2 119.76,-21.72 340.66,-12.99 468.79,-9.84l1800.75 26.3c538.1,11.1 623.38,102.97 518.79,-207.69 78.29,-66.17 244.29,-79.97 315.78,-103.4 -351.03,-343.96 -562.68,34.63 -602.15,-525.43l-23728.06 -2.96 -232.61 91.33 523.8 325.31c-332.36,47.48 53.95,74.54 -715.26,322.13 -327.81,105.54 -549.06,142.12 -896.66,246.28 -381.06,114.19 -1477.95,331.03 -1913.46,302.83z"/>
   </g>
   <path class="fil2" d="M21504.87 4335.04c-172.91,-103.25 -60.75,-382.56 -1.35,-391.77 57.48,-8.9 34.3,38.94 167.73,65.57 -22.27,134.11 -40.01,283.84 -166.38,326.2zm175.26 -434.48c-100.58,-12.39 -278.44,-113.36 -172.33,-228.75 58.89,-64.05 114.38,7.51 136.29,45.25 31.26,53.84 37.8,106.8 36.04,183.5zm-1665.84 -80.92c-12.66,-122.16 83.43,-334.9 178.78,-232.95 114.52,122.47 -85,216.39 -178.78,232.95zm-372.98 -600.53c-103.65,-94.74 -21.23,39.94 -46.08,-59.7 -2.59,-10.37 1.66,-60.71 1.7,-81.07 0.59,-286.52 -192.22,-255.67 -289.06,-54.41 -140.95,292.93 -435.47,1156.15 -150.15,1368.49 114.08,84.9 230.04,11.96 315.95,-45.11 108.48,-72.07 146,-215.79 171.25,-260.06 58.74,-0.48 66.05,8.65 110.08,13.17 -31.05,-49.68 -35.03,-46.16 -27.01,-77.29 43.07,-12.46 18.26,-24.29 59.73,-7.84 72.05,28.57 9.56,279.05 323.34,299.43 232.34,15.08 350.41,-202.35 426.64,-285.83 110.62,9.11 101.94,51.09 202.41,-17.11 44.67,-30.33 92.98,-66.66 124.05,-106.12 18.28,153.34 -95.06,329.02 27.16,513.89 55.91,37.83 154.17,-1.12 217.33,-54.47l93.51 -92.23c57.62,55.98 125.65,296.02 409.6,129.81 195.1,-114.2 194.63,-215.52 232.3,-386.19l129.6 -37.03c6.67,267.29 -12.48,448.73 26.55,724.81 21.45,151.76 19.05,166.35 111.35,258.23 61.72,61.45 135.24,141.39 242.31,101.09 34.92,-123.02 -34.8,-23.06 -82.32,-226.23l-72.69 -580.6c3.43,-160.1 15.31,-165.31 80.41,-226.77 -16.43,-6.91 -84.53,31 16.82,-122.45 51.48,-77.95 108.15,-157.99 194.56,-191.6 10.03,13.7 13.62,16.39 24.74,42.58 2.45,5.77 8.62,24.01 10.43,30.29l31.93 188.43c9.54,118.97 5.67,191.02 -48.5,260.2 -67.27,-26.85 -23.58,-46.28 -112.86,-79.3 -47.66,28.24 -108.92,54.92 -62.65,181.32 154.94,42.58 333.91,-80.36 398.4,-159.74 188.86,-232.45 13.5,-1024.63 -408.13,-432.36 -34.04,47.81 -87.6,124.4 -125.98,151.91 -4.16,-81.24 94.42,-498.87 -87.25,-410.52 -55.99,27.23 -70.8,133.16 -85.83,199.99 -8.91,39.65 -21.65,149.69 -35.01,174.52 -26.61,49.43 -68.63,49.38 -131.68,50.9 -30.21,-58.39 -24.66,-135.55 -55.59,-203.37 -121,-265.4 -411.36,-182.46 -463.17,-52.25 -35.06,88.11 12.18,113.46 -44.35,213.39 -18.73,33.11 -70.68,123.73 -82.51,155.54 -10.73,28.83 -3.39,223.04 -177.44,289.03 -28.41,-230.42 143.73,-674.49 53.5,-789.27 -242.26,-51.79 -123.72,368.35 -398.23,353.14 -4.97,-174.24 77.69,-315.04 -3.43,-438.61 -87.85,-12 -66.64,-15.48 -121.59,29.65 -80.69,66.26 -71.82,158.04 -78.44,338.11 -6.7,182.25 -57.92,317.29 -246.9,363.09 7.03,49.13 -30.52,-77.65 -27.83,-4.56 -127.89,-20.1 -166.97,-134.81 -186.31,-275.11l235.09 -70.89c37.34,-38.42 148.35,-196.3 113.58,-283.83 -221.29,-276.94 -289.81,-38.5 -509.37,-20.76 52.58,143.39 -2.79,8.11 -53.53,252.95 -44.13,212.98 -8.21,100.36 -121.81,155.14 -3.83,-377.06 -335.52,-297.67 -311.27,-85.48 12.17,106.47 60.15,87.53 102.49,152.1 -3.75,124.45 -54.92,271.24 -152.43,293.73 -58.85,-43.38 -56.2,-46.3 -69.19,-126.29 -10.17,-62.61 -10.37,-124.55 -6.69,-187.07 8.47,-143.69 14.21,-222.84 91.69,-303.51 138.26,-143.95 183.4,-357.72 203.84,-399 58.87,-118.87 25.1,-17.58 92.94,-50.9zm-5096.27 1098.79l-24.11 -159.78c-21.08,-75.62 22.84,-162.88 46.89,-220.66l198.25 87.77c-68.49,201.64 -41.69,342.31 -221.03,292.67zm112.03 -679.09c86,39.1 109.36,140.09 122.95,269.98 -81.46,-27.33 -164.85,-46.98 -192.64,-110.05 -32.75,-74.33 14.11,-134.06 69.69,-159.93zm1453.84 1433.81c67.27,-90.84 -41.09,-79.41 -49.01,-191.46 -15.38,-20.29 -8.12,-5.99 -21.38,-40.42l-56.48 -293.59c-43.74,-275.1 -40.99,-444.93 86.61,-652.46 41.62,-67.7 109.36,-155.89 187.88,-181.38 65.01,155.87 103.45,379.78 23.97,523.56 -98.24,-16.95 -1.21,6.15 -75.96,-41.19 -78.9,-49.96 -113.21,16.24 -122.45,106.74 88.88,54.76 91.84,68.68 217.46,14.65 72.94,-31.38 121.86,-65.82 164.2,-114.75 168.68,-194.96 104.31,-875.74 -245.1,-609.1 -111.09,84.78 -179.75,246.43 -264.81,315.44 3.47,-148.17 62.11,-293.49 -1.82,-423.55 -126.38,-15.66 -154.01,142.27 -176.9,244.55 -42.36,-15.54 -21.99,-10.3 -79.83,3.77l-15.22 -41.95c-169.77,-360.6 -550.96,-503.36 48.69,-616.87 59.49,-11.25 119.13,-24.58 178.12,-43.23 88.78,-28.05 91.53,-108.55 -6.02,-134.27 -133.91,-35.31 -298.35,26.35 -420.21,57.13 -360.8,91.11 -131.89,462.96 -74.02,634.37 70.49,208.85 77.87,699.12 -115.83,702.86 -46.71,-91.71 -44.37,-259.97 -26.16,-384.12 27.02,-184.26 143.68,-28.7 134.94,-270.52 -125.81,-22.57 -190,65.02 -241.29,127.11 -93.07,112.67 -37.53,127.6 -225.79,157.04 -15.48,-118.38 -26.63,-225.08 -106.76,-305.85 -67.69,-68.23 -181.79,-101.7 -289.86,-47.58 -159.68,79.96 -86.13,161.55 -120.88,267.19 -11.24,34.17 -57.15,88.35 -75.53,134.53 -199.91,502.45 368.66,675.52 547.31,217.84 75.45,-193.3 14.49,-66.68 90.78,-134.16 54.95,-48.61 2.84,-38.51 67.54,-59.31 -143.96,503.52 355.82,581.29 547,97.81 88.2,-223.05 13.07,-267.88 100.1,-354.76l58.25 28.48c19.17,112.13 -14.2,275.84 -17.35,377.46l9.4 536.17c0.13,52.63 -6.63,-6.08 2.93,22.02l70.29 195.55c50.04,95.24 136.6,174.93 293.19,176.25zm737.03 -738.38c-59.65,-118.6 -89.21,-273.1 7.05,-385.27 113.7,10.46 27.96,26.33 185.33,59.83 -6.69,149.2 -50.85,315.89 -192.38,325.44zm1508.79 -337.34c-12.84,96.35 -28.7,197.79 -77.93,270.24 -154.86,227.89 -224.07,-177.56 -144.62,-298.1 43.72,-66.34 101.49,29.25 222.55,27.86zm0.53 -112.61c-79.19,3.27 -154.75,-31.64 -181.72,-83.07 -38.85,-74.04 1.1,-124.84 55.81,-164.91 90.54,38.22 124.41,151.99 125.91,247.98zm-1481.77 -65.34c-38.65,-61.87 -34.02,-136.67 53.89,-180.34 67.4,29.21 51.47,20.4 88.12,94.14 33.83,68.03 38.02,69.89 34.34,150.66 -52.74,9.78 -144.63,-13.68 -176.35,-64.46zm-256.65 494.84c29.81,136.61 185.08,182.36 327.91,110.3 302.5,-152.61 194.59,-327.31 291.55,-401.71 108.15,-82.99 175.86,-9.48 302.76,-277.72l57.91 -82.05c98.52,152.97 -212.75,436.53 -152.86,689.41 0.61,2.59 2.48,7.84 3.19,10.11l12.49 26.28c33.88,19.82 37.82,20.46 81.28,36.92 152.65,21.11 220.72,-80.6 298.06,-186.02l17.52 -22.68c2.5,-3.15 7.48,-8.8 9.56,-11.36 2.1,-2.59 6.45,-7.64 9.75,-11.4 55.44,99.92 -20.15,116.36 -48.47,169.26 128.03,-56.07 73.91,-36.27 126.74,20.17 208.26,222.43 445.77,-80.08 472.95,-93.6 1.16,-6.1 91.48,-259.25 94.09,-265.62 17.05,-19.33 201.88,-44.76 253.79,-161.94 12.84,-28.99 13.41,-14.33 10.07,-57.44 -4.08,-52.7 3.95,-14.87 -16.39,-42.92 -77.32,52.11 -74.5,146.19 -237.34,147.34 -13.61,-70.43 -24.86,-131.58 -58.26,-200.67 -150.35,-310.95 -403.38,-134.08 -444.66,-52.31 -42.74,84.69 -5.65,126.31 -48.06,214.32 -23.51,48.81 -56.55,99.46 -85.48,158.86 -37.83,77.66 -130.3,326.75 -208.45,242.89 -113.55,-121.84 313.37,-515.87 64.3,-680.89 -129.67,-85.91 -189.23,-33.9 -246.59,42.25l-16.35 21.83c-78.68,115.05 -75.6,267.39 -262.87,257.81 -33.31,-80.8 -5.94,-106.29 -50.74,-192.17 -134.14,-257.12 -348.15,-188.05 -430.09,-104.3 -69.55,71.1 -31.65,109.31 -46.39,199.52 -4.69,28.74 -205.5,346.02 -80.92,497.53zm-3279.17 250.63c2.93,-4.56 5.26,-11.12 6.59,-14.89 29.75,-84.45 14.02,-130.82 49.21,-160.79 134.37,-61.94 494.53,-14.11 596.17,51.62 9.32,132.64 -59.05,158.87 -19.88,255.24 143.06,25.07 322.06,-266.18 286.23,-424.87 -81,-76.82 -115.9,-61.95 -239.94,-81.58 -11.93,-51 80.7,-578.64 96.1,-674.78 32.47,-202.6 134.13,-560.47 25.67,-641.37 -97.76,-60.48 -321.31,-22.07 -433.62,-4.74 -291.01,44.91 -269.29,68.69 -238.48,190.97l200.55 11.05c-46.35,188.7 -68.39,373.74 -113.81,573.62 -74.28,326.86 -171.53,376.18 -162.1,514.89 214.05,2.61 284.38,-283.72 327.58,-458.6l150.23 -644.9 108.89 7.9c38.9,145.14 -11.99,395.06 -34.97,555.83l-56.59 570.85c-121.07,9.74 -277.03,13.44 -399.36,13.76 -147.71,0.38 -228.35,-15.18 -303.57,91.14 -8.03,117.45 61.58,230.14 155.1,269.65zm9750.93 -424.33c-13.87,-50.88 -24.78,-64.88 -13.9,-123.59 21.27,-114.72 10.87,-26.9 37.66,-65.64 0.52,-0.74 27.81,-204.38 108.34,-292.95 89.46,-98.41 108.52,-27.14 175.48,-81.88 -11.36,-149.49 -226.89,-87.46 -293.31,-38.16 -79.36,58.91 -119.37,149.8 -180.63,216.83 -65.6,71.76 15.91,-36.63 -28.23,100.71 -19.01,59.19 -33.13,87.53 -39.31,156.59 -37.28,416.12 205.34,316.4 297.72,221.31 23.71,-24.4 52.88,-55.6 81.25,-90.47 41.76,-51.33 28.41,-54.81 61.84,-66.46 0.84,43.98 -0.05,96.55 10.16,139.4 42.87,179.87 193.9,85.65 272.37,-6.15 49.53,-57.93 167.63,-277.7 138.18,-350.87 -107.31,55.63 -118.39,237.67 -223.19,307.29 -29.89,-43.16 -32.53,-77.07 -33.36,-135.83 -2.26,-160.16 52.93,-367.1 -31.55,-404.55 -218.61,-16.49 -72.91,492.1 -339.52,514.42zm832.22 -24.83c-177.78,174.78 -85.78,253.68 -174.63,419.66 -149.86,279.97 361.76,18.47 263.98,-386.53l-89.35 -33.13zm-6461.23 -697.83c67,12.55 91.43,33.8 174.81,34.18 80.6,0.37 351.66,-84.36 395.37,-179.33 -127.07,-9.57 -204.35,25.92 -322.11,36.74 -257.66,23.67 -61.6,23.89 -249.58,-18.75l1.51 127.16z"/>
   <path class="fil3" d="M20366.38 11655.57c43.89,190.77 -139.03,815.49 70.42,904.88 33.38,-9.57 130.81,-70.07 161.41,-95.93l174.42 -332.11c66.07,-154.09 404.15,-747.78 482.74,-813.92 -15.36,209.61 -341.98,1128.66 -185.9,1255.2 170.45,121.76 255.85,-219.78 275.21,-330.84 24.25,-237.79 195.14,-1081.06 136.66,-1222.74 -206.49,-33.72 -223.55,51.68 -319.77,136.05 -247.11,216.7 -389.67,689.16 -526.24,826.33 -27.3,-114.87 33.06,-350.7 56.34,-470 14.73,-75.43 27.01,-153.64 43.6,-228.46 17.15,-77.34 18.88,-143.78 37.66,-218.28 14.27,-88.94 19.63,-142.89 -86.96,-159.94 -132.47,22.16 -176.8,205.75 -213.71,319.84 -24.29,75.08 -40.76,141.15 -54.79,217.42l-31.4 171.81c-13.09,40.28 -4.77,20.06 -19.69,40.69zm-1008.62 822.06c72.43,-26.3 102.16,-47.04 111.18,-125.7 -10.18,-155.44 -66.82,-291.9 -54.26,-460.48 85.16,-18.9 215.45,-84.57 319.85,-71.59 32.03,294.56 -14.04,190.96 61.62,594.8 47.37,69.87 41.36,161.67 114.72,191.56 183.47,74.75 112.83,-147.9 112.74,-148.57 -17.03,-123.85 16.96,-415.26 23.21,-547.73 7.94,-150.43 -39.12,-180.93 112.53,-238.17 233.38,-88.09 7.95,-88.45 -102.59,-93.71 -5.87,-182.26 30.99,-752.79 -73.12,-835.66 -208.37,80.38 -112.39,815.81 -278.5,892.74 -69.6,32.23 -221.14,55.6 -294.05,44.75 -30.64,-155.57 -12.86,-259.82 -2.35,-398.37 8.54,-112.53 -10.54,-284.54 -66.24,-360.06 -196.56,8.74 -182.66,211.58 -202.33,362.65 -19.72,151.45 -32.86,314.11 -39.64,473.83 -66.58,48.83 -71.79,24.33 -112.52,87.37 48.37,42.91 43.63,25.07 101.55,54.61 -4.24,146.33 -33.65,167.18 -1.35,350.16 26.08,147.75 74.49,229.28 269.55,227.57zm-9435.4 -456.91l-31.08 -176.31c-353.93,-185.31 -233.87,777.86 170.99,197.41 54.64,-78.35 90.4,-203.44 141.98,-266.32 10.42,166.18 -57.4,384.43 -21.96,528.86 223.55,34.76 174.6,-97.82 241.19,-233.46 37.44,-76.26 128.55,-250.03 200.53,-295.83 -21.81,226.04 -176.31,423.14 16.7,611.49 117.98,17.87 186.15,-4.34 251.1,-58.35 72.99,-60.69 65.03,-80.85 156.38,-145.27 3.57,-2.52 10.01,-6.67 15.22,-9.78 30.63,85.89 47.83,199.56 213.61,170.76 65.04,-11.29 110.9,-52.04 140.18,-79.39 23.29,-21.74 30.75,-32.32 46.46,-49.05 9.04,-9.63 18.72,-20.45 28.41,-29.5 17.64,-16.47 20.18,-17.98 32.77,-27.16 41.05,78.39 3.31,105.74 83.85,144.89 201.77,94.92 320.46,-131.61 387.05,-235.03 12.67,-19.68 28.49,-40.02 35.14,-60.76 8.66,-26.96 8.57,-9.46 5.53,-40.92 -3.77,-39.24 0.58,-18.38 -15.27,-41.08 -84.29,26.06 -89.78,73.74 -127.54,147.91 -35.61,69.94 -51.44,119.09 -129.72,133.1 -175.31,-175.18 236.56,-649.46 -119.57,-609.66 -85.01,125.43 -122.92,590 -318.8,548.81 -61.1,-109.81 17.03,-257.25 47.73,-371.31 52.44,-194.89 -114.51,-222.75 -193.2,-104.66 -74.42,111.67 -137.87,551.15 -385.28,572.6 -135,-238.76 151.63,-618.59 70.53,-773.01 -104.02,-16.47 -124.58,22.97 -166.13,73.58 -38.55,46.97 -78.82,89.17 -116.37,132.63 -78.32,90.64 -142.33,201.56 -222.58,280.03 -5.16,-145.84 40.55,-239.71 48.43,-372.86 8.35,-141.22 -88.46,-259.38 -205.76,-145.94 -38.49,37.22 -92.78,237.77 -119.1,306.66l-97.3 217.67c-33.66,50.9 -24.09,35.42 -64.12,59.25zm5887.19 -1031.64c141.48,159.4 573.12,-0.72 785.93,297.47 185.85,260.41 -185.87,534.09 -379.69,536.88 -13.51,-131.14 1.54,-282.58 16.81,-413.1 16.2,-138.4 24.88,-271.68 -133.1,-308.27 -129.2,9.87 -214.09,384.93 -235.35,499.31 -19.54,105.07 -3.28,127.96 -71.58,168.75 -2.32,1.4 -9.03,3.35 -13.38,5.27 87.93,41.33 39.9,-32.45 22.81,245.33 -14.91,242.28 61.05,644.17 424.07,570.35 71.46,-97.99 -88.51,-188.93 -9.77,-437.76 21.8,-68.9 14.39,28.5 1.39,-40.07 -33.31,-175.6 65.9,-80.04 366.43,-277.63 405.7,-266.73 281.22,-660.72 -3.13,-834.21 -58.93,-35.96 -104.89,-42.28 -129.48,-80.37 -2.07,-3.2 -4.17,-24.94 -6.75,-30.37 -80.65,66.24 -41.25,-6.51 -323.23,-16.58 -155.28,-5.54 -287.69,4.46 -311.98,115zm1519.37 687.85c8.76,-168.21 82.06,-426.73 143.39,-563.95 192.33,45.04 245.53,407.64 195.11,549.55l-338.5 14.4zm442.62 -516.33l-19.51 -12.37c-1.97,-1.68 -7.26,-5.71 -9.3,-7.67 -2.21,-2.12 -6.75,-7.07 -8.76,-9.22 -28.59,-30.62 1.51,9.09 -23.47,-35 -62.19,-42.34 -154.66,-128.81 -293.05,-88.64 -161.08,46.77 -266.67,343.03 -318.45,475.65 -18.2,46.61 -34.46,87.41 -52.65,133.16 -36.65,92.17 -3.62,61.73 -95.88,106.46 33.63,172.91 -184.67,600.76 -39.15,722.33 169.34,113.59 319.91,-31.7 349.99,-164.74 35.92,-158.86 2.12,-325.77 53.94,-481.74l355.82 -52.43c66.6,258.32 -178.32,589.15 37.95,815.5 219.65,-4.98 151.2,-110.19 165.81,-272.66 38.22,-425.01 92.64,-728.14 -103.29,-1128.63zm-3787.85 632.46l147.89 0.02 -35.11 136.28c-47.38,146.76 -147.19,553.02 -305.88,624.08l-56.65 -67.95c-1.93,-2.74 -4.46,-8.71 -8.08,-12.33 -282.02,218.44 281.63,586.43 581.68,-279.25 93.05,-268.46 144.85,-612.29 187.08,-900.76 8.79,-60.06 66.45,-249.13 -11.91,-287.66 -171.6,-84.36 -263.93,506.98 -305.42,615.67 -26.05,68.22 -44,36.08 -26.7,76.08 -328.18,-88.06 -218.64,-643.88 -403.15,-699.75 -153.02,148.08 -181.53,690.75 236.25,795.57zm4172.92 -752.61c47.35,75.49 138.16,62.16 263.25,79.15 4.66,212.11 -304.45,769.02 -40.99,1332.03 -118.45,42.4 -211.97,4.48 -265.42,110.07 37.55,72.57 72.86,72.84 187.17,67.5 136.18,-14.31 232.01,-34.39 359.61,-72.75 260.49,-78.29 237.96,-42.37 271.6,-127.64l-324.9 -1.37c34.59,-163.55 21.62,-458.16 38.38,-651.35 16.81,-193.76 -29.62,-481.25 13.45,-654.18 73.94,-7.65 154.65,-14.31 220.44,-31.37 98.71,-25.59 113.94,-36.32 108.78,-101.46 -61.7,-16.17 -274.48,-1.2 -385.56,-14.89 -150.71,-18.56 -285.47,-42.74 -421.14,-10.55l-24.67 76.81zm-2488.07 1459.74c9.95,-118.76 -215.98,-571.71 -270.21,-629.51 -196.93,-209.92 -233.32,-106.35 60.76,-403.98 1.57,-1.59 33.94,-33.33 41.7,-39.3 3.37,-2.59 8.52,-6.02 11.9,-8.42 86.6,-61.38 241.93,-310.81 150.76,-459.74 -77.25,-5.22 -109.26,10.99 -146.82,47.83 -112.93,110.78 89.66,106.15 -148.84,368.1 -128.35,140.96 -364.04,330.46 -362.68,416 1.26,79.06 168.5,449.79 208.67,526.94 46.33,88.97 94.56,157.96 169.93,211.91 133.06,95.25 193.51,28.84 284.83,-29.83zm-713.07 -1356.88c-77.98,31.61 -69.61,49.99 -110.63,123.94 -15.49,27.93 -26.43,44.43 -43.78,70.39 -127.74,190.98 -313.98,1064.51 -71.86,1130.17 278.14,75.41 198.66,-591.54 241.88,-751.72 21.35,-79.1 -14.5,-78.61 24.48,-274.54 15.34,-77.13 131.61,-367.83 -40.09,-298.24zm-2412.47 1243.66c9.62,-75.77 162.31,-162.23 270.64,-171.33 35.1,150.51 -148,254.63 -270.64,171.33zm486.77 11.58c38.03,-73.76 34.99,-73.13 26.73,-160.78l-55.14 -95.87c107.33,-95.45 266.83,-61.23 286.38,-223.5 -124.52,6.32 -95.84,102.19 -338.71,162.27 -68.11,-34.62 -101.12,-67.17 -134.72,-130.54 32.96,-59.14 309.9,-212.94 89.21,-240.79 -21.3,-2.69 -73.39,1.32 -94.11,3.16 -79.5,7.04 -102.1,12.03 -184.06,5.8 -45.61,-59.83 -2.45,-93.45 -93.53,-107.91 -57.46,-9.11 -115,31.04 -127.78,70 -20.08,61.2 40.54,78.67 48.26,132.68 10.86,75.94 -53.42,82.62 -21.16,156.63 73.9,-14.33 48.06,-11.2 121.3,-82.23l28.42 -67.43 207.02 -8.41c-118.76,110.8 -231.74,81.99 -43.5,342.62 -91.97,54.51 -481.52,169.1 -282.02,328.62 107.21,85.72 368.24,117.82 567.41,-84.32zm5187.54 -1659.25l18.58 78.45c169.57,44.82 247.77,-4.16 192.28,-140.98l-102.25 -9.82c-67.31,32.62 -43.45,41.81 -108.61,72.35zm391.77 -71.77c-13.13,35.88 -12.99,37.17 -28.17,76.92 40.6,52.6 57.76,64.81 151.18,70.46 61,-62.43 57.02,-67.01 30.51,-153.27 -64.14,-15.17 -120.55,-5.64 -153.52,5.89z"/>
   <g>
    <path class="fil4" d="M18445.08 9741.35c280.65,-30.16 387.45,129.53 582.88,302.36l-846.08 3.14 263.2 -305.5zm-1557.88 304.78c59.25,-93.69 258.02,-362.17 353.47,-395.95l302.25 402.32 -655.72 -6.37zm2828.18 -289.21l275.72 -0.77 247.6 230.5 -677.69 -23.92 154.37 -205.81zm2675.91 -20.79c232.01,21.01 242.54,24.96 353.57,234.98l-571.28 -50.13 217.71 -184.85zm-1372.68 13.88c367.33,-79.55 380.59,9.56 613.05,188.03l-727.04 -13.35 113.99 -174.68zm1939.38 -971.99c700.57,-242.86 899.85,858.65 301.09,1120.12 -701.56,306.36 -912.44,-908.19 -301.09,-1120.12zm-6990.77 770.73c153.08,444.74 238.97,286.82 347.29,516.9 -576.84,-46.93 -542.26,-325.42 -948.76,-500.93 220.31,-140.46 328.42,-121.42 601.47,-15.97zm1501.67 -642.54c240.25,-48.81 815.36,-174.25 928.76,106.03 138.05,341.19 80.55,554.99 -155,793.26 -438.98,444.07 -1133.37,-35.1 -773.76,-899.29zm-1131.65 -66.04c93.86,-30.5 389.43,13.41 506,24.57 191.07,18.31 239.62,68.21 277.42,268.49 56.99,302.11 -58.23,687 -333.1,813.64 -697.96,321.58 -1054.72,-910.43 -450.32,-1106.7zm-3657.93 655.76c-62.73,162.95 -224.06,61.77 -420.9,39.34 -172.19,-19.62 -358.65,-18.47 -533.62,-49.47l17.49 71.71c1.25,8.32 2.3,19.14 3.18,31.82 94.18,-8.31 249.23,-0.7 520.09,24.76 249.2,23.43 190.33,128.41 484.26,89.86 194.56,-462.48 -50.22,-415.66 669.14,-548.63 527.89,-97.56 459.13,120.86 1057,-196.96 99.89,128.21 65.81,128.12 217.21,229.49l464.62 436.8c235.8,127.25 71.13,-69.93 245.51,223.94 220.63,97.83 96.02,-63.43 246.1,142.86 117.74,161.84 -9.73,31.55 175.62,131.35 113.89,61.31 0.69,-39.25 65.87,46.53 384.41,192.16 158.25,36.02 409.34,33.43 112.66,-1.16 117.41,62.17 238.79,71.71 192.5,15.13 98.46,-57.66 215.88,-46.86 94.99,8.76 43.67,57.75 204.02,60.02 115.95,1.65 158.79,-55.56 245.52,-63.86 227.8,-21.8 45.21,155.61 455.12,-32.94 398.59,207.73 241.89,-37.46 479.07,31.17 101.27,29.31 86.49,85.6 215.11,81.42 104.27,-3.39 155.43,-81.42 235.99,-75.82 117.3,8.17 25.87,78.9 183.12,65.78 164.33,-13.7 78.16,-96.51 223.95,-68.86 306.27,58.07 68.44,170.16 410.78,-87.71 375.01,277.78 169.13,-105.2 484.25,-11.01 153.78,45.95 113.29,167.32 330.92,76.03 257.03,-107.8 22.88,-82.87 299.67,0.63 155.64,46.95 175.37,-44.31 291.6,-106.59 337.5,140.48 137.15,123.39 456.03,-20.3 145.09,60.03 141.29,132.37 289.88,103.59 190.22,-36.85 -62.86,-78.27 334.47,22.57l150.16 -117.27 185.66 104.76 186.11 -124.63c210.49,129.35 125.58,167.77 361.1,45.19l197.62 120.68c119.96,-56.7 98.51,-99.75 206.46,-77.66 181.76,37.18 57.64,103.92 294.7,-6.67 138.72,-187.85 205.41,5.17 343.6,-192.88 77.61,-111.21 -1.19,-88.1 104.81,-173.6 89.93,-72.54 71.35,21.41 162.84,-106.9 65.81,-92.29 2.05,-84.46 97.78,-177.89 80.97,-79.02 64.7,4.92 151.44,-121.2 216.41,-314.63 -21.02,-67.4 290.03,-255.32 50.45,-114.23 35.17,-155.12 71.17,-245.28 26.44,-66.27 100.05,-141.57 143.09,-213.74 -5.19,-161.53 -102.45,-341.33 -84.03,-491.02 1.25,-10.17 106.01,-111.55 -185.56,-344.65 -156.12,-124.82 -817.22,-191.27 -1052.41,-230.03 -362.83,-59.8 -727.76,-103.27 -1092.21,-151.75 -651.97,-86.71 -989.61,95.77 -997.37,-125.42 -12.07,-344.92 937.17,-311.63 1157.44,-325.91 362.39,-23.49 183.57,32.71 426.04,103.52 196.55,-102.12 36,-133.31 284.18,-122.94 130.13,5.43 311.63,26.64 440.86,49.33 215.2,37.81 556.1,205.37 707.43,209.15l76.48 -258.74c148.73,46.69 181.39,162.49 379.93,171.24 148.01,-140.19 317.38,-458.76 327.83,-664.17 -459.03,-320.19 -454.6,-218.59 -966.4,-149.06 205.88,-306.27 3.12,-795.62 -319.35,-871.24l-243.77 392.62c0.01,0 439.29,257.61 45.06,474.21 -255.72,140.5 -512.56,0.2 -732.19,-46.36 -234.67,18.23 135.06,196.61 -1286.75,160.68 -118.09,-139.53 -51.39,-182.63 -278.3,-253.44 -174.58,-54.48 -311.34,-18.47 -475.01,-57.58 -21.04,-224.52 117.53,-527.31 -661.2,-331.96 -409.64,102.76 -496.77,53.94 -883.16,-76.14 -15.45,-170.47 26.92,-289.14 -142.96,-335.68 -145.91,-39.97 -348.21,-22.49 -483.62,15.26 -135.62,219.74 22.95,253.51 -238.09,314.37 -146.07,34.05 -296.08,51.59 -438.95,104.97 -191.21,71.44 -342.82,316.78 -736.81,360.1 -147.43,16.21 -369.79,-15.16 -506.77,30.94 -128.23,43.17 -80.5,47.67 -153.89,122 -144.58,146.48 -1.82,24.4 -181.63,92.35 -314.11,118.69 -150.99,653.98 228.85,431.25 225.88,254.74 340.79,158.17 691.05,175.41l365.44 310.53c151.85,85.29 60.4,-48.4 131.04,93.8 -229.54,59.52 -506.2,57.55 -739.56,17.42 -218.13,-358.71 -61.21,-322.98 -610.81,-327.63 -286.93,-2.42 -626.14,-25.34 -894.69,72.49l-91.83 255.75c-324.46,27.13 -96.92,-97.26 -409.08,-114.82 -170.92,-9.62 -360.28,31.64 -545.43,21.86l-126.93 -227.42c-582.34,-105.08 -446.87,60.83 -743.71,-194.17 -186.99,-160.63 -498.58,-175.9 -703.79,-38.78 -423.85,283.18 -308.42,1024.33 241.94,1147.77 -346.63,55.45 -294.05,368.53 -646.32,347.94 -229.04,-13.39 -157.34,-155.1 -398.59,-66.25 -164.75,60.67 -277.86,81.5 -358.81,75.2 5.59,19.73 9.86,39.54 13.08,59.76 16.53,0.21 31.89,0.25 45.63,-0.08 244.03,-5.75 289.3,-107.22 462.74,-78.38 30.72,291.96 -115.92,130.03 -342.44,154.11 -53.28,5.66 -105.28,18.79 -157.17,34.43 0.6,31.19 0.35,62.24 -2.12,93.36 74.69,-20.78 145.6,-39.24 198.79,-42.39 254.89,-15.08 106.24,111.01 382.65,-44.2 165.76,-93.08 262.71,-5.03 423.78,-83.73 187.39,-91.58 54.63,-167.36 234.7,-261.55 66.2,-6.49 125.71,100.18 281.88,265.29 -161.92,548.36 -34.06,210.48 -91.47,506.45 -188.09,98.51 -241.33,26.62 -418.15,82.13 -157.54,49.47 -115.55,147.52 -211.27,257.65 -300.78,-88.99 -212.1,42.87 -490.97,21.28 -113.96,-8.81 -169.86,-68.65 -441.09,-157.76 -5.89,32.31 -15.23,64.82 -27,96.71 223.2,-49.19 187.6,83.76 356.1,130.15 173,47.64 375.13,-11.8 527.09,58.38zm8346.45 -634.58c329.66,745.34 -473.92,1197.49 -863.15,880.49 -173.85,-141.57 -218.33,-619.73 -40.62,-787.94 158.1,-149.63 672.57,-99.91 903.77,-92.55zm-1739.86 -186.94c188.59,68.13 36,58.21 208.62,131.33 39.31,16.66 388.7,17.48 284.23,551.59 -19.55,99.92 -132.15,309.98 -191.74,394.12 -117.73,166.17 -200.09,187.75 -410.38,167.38 -637.85,-61.79 -664.33,-975.87 -240.04,-1003.71 287.04,-18.83 206.62,24.56 349.31,-240.71zm2357.15 36.15c125.46,-51.94 350.82,-44.86 513.37,-38.68 201.89,7.68 258.74,49.3 288.38,261.83 33.54,240.57 -93.48,716.47 -309.81,846.17 -691.38,414.57 -1108.1,-814.25 -491.94,-1069.32zm2619.79 336.22l73.13 55.52 -48.92 30.69c-187.07,180.9 -579.1,778.64 -827.74,768.93 184.07,-208.53 153.88,-252.41 236.56,-500.84 59.26,-178.08 235.08,-267.98 365.39,-403.67l201.58 49.37zm-253.47 -178.65c-28.58,172.29 -182.41,203.74 -289.69,316.59l-27.43 -149.16 317.12 -167.43zm-8889.03 456.18c119.69,-91.14 212.13,-34.35 347.98,-202.36 145.88,-180.43 81.35,-276.45 133.37,-446.43l607.02 87.07c-16.72,88.61 -130.11,148.28 -190.32,283.99 -59.62,134.38 -50.38,255.7 -106.74,375.52 -751.74,-160.4 -467.69,133.88 -791.31,-97.79zm-165.6 -547.16c128.23,-158.55 226.54,-134.87 241.5,93.88 -132.39,11.65 -155.18,11.67 -241.5,-93.88zm8588.09 -33.36c265.98,-106.25 239.49,-207.11 460.9,-85.02 -92.45,170.59 -193.01,172.57 -359.4,259.24l-101.5 -174.22zm-1023.97 9.49l256.36 -54.84c-67.09,92.37 -79.33,99.87 -138.5,175.19 -70.2,89.37 7.83,31.86 -90.71,89.03l-27.15 -209.38zm-8214.87 -1.67c-160.68,182.22 -433.57,56.17 -363.77,-291.46 123.82,19.37 338.91,167.54 363.77,291.46zm556.82 -78.77c48.12,113.56 3.57,370.49 271.55,315.07 189.29,-39.15 121.16,-217.13 159.52,-336.24 327.91,52.12 141.51,526.74 -158.01,543.58 -274.87,15.44 -502.56,-177.77 -443.64,-479.86l170.58 -42.55zm9611.16 272.49c-237.56,27.12 -481.18,-14.32 -376.23,-324.81 65.36,-193.4 266.45,-234.4 446.81,-211.23 84.66,274.25 44.87,288.71 -70.58,536.04zm-5759.52 -885.66l696.18 18.97 -4.45 516.34 -191.16 23.32c-105.74,186.22 -23.55,187.5 -274.76,187.66l-271.14 -1.32 45.33 -744.97zm-2050.45 95.3c299.73,-51.15 237.57,-25.84 468.06,55.8 132.62,46.99 929.07,51.72 1071.2,21.28 286.51,-61.34 -12.71,-222.16 392.56,-176.63 15.08,214.28 13.45,556.55 -82.38,740.2 -169.18,0.92 -328.66,-32.54 -504.45,-29.59 -382.04,6.42 -807.47,94.53 -1335.76,-50.96 -50.95,-166.94 -27.67,-379.59 -9.23,-560.1zm-2032.32 41.09c380.01,-71.36 1553.36,-94.12 1938.05,-47.59l0.46 553.67c-701.47,-29.16 -1222.06,-171.73 -1972.69,-126.24l34.18 -379.84zm-890.99 -82.7c181.1,142.12 175.67,183.41 127.6,360.49 -76.82,282.95 65.74,271.64 167.48,466.66 -796.17,114.9 -451.69,-319 -467.77,-474.02 -14.88,-143.54 -81.29,-94.15 -124.23,-237.03l296.92 -116.1zm10143.31 -305.32c242.42,-88.76 608.34,-55.69 776.39,316.8 -220.08,78.27 -589.28,463.31 -802.55,350.77 -55.07,-152 -28.43,-489.56 26.16,-667.57zm-7840.19 -89.79l622.66 15.37c39.78,118.56 31.39,138.29 10.06,296.06l-675.52 1.13 42.8 -312.56zm6697.92 388.07c117.25,-143.4 85.73,16.91 148.64,-157.44 -81.46,-164.7 -42.89,17.57 -110.53,-159.54 121.95,-225.8 215.53,-177.19 444.38,-146.11 542.46,73.63 664.65,-5.46 476.11,962.33 -167.39,19.04 -931.25,105.03 -954.74,-152.02 -17.6,-192.49 18.8,-62.07 139.18,-190.87 -50.35,-147.06 -31.74,-54.73 -143.04,-156.35zm-8641.25 -294.39c73.78,-348.88 167.13,-325.05 488.15,-351.34 192.43,-15.76 502.3,-35.37 684.67,-6.71 182.77,462.32 -396.76,354.54 -1172.82,358.05zm7567.77 -72.07l-54.37 -78.96c-3.21,-16.15 -11.48,-19.88 -14.76,-30.81 120.26,-198.12 387.45,-148.2 600.1,-117.13 271.93,39.73 321.07,-17 456.06,238.24 -55.11,207.14 -17.4,12.28 -128.85,208.58l131.84 140.51c-219.25,147.29 -201.59,49.78 -13.79,280.8 -66.96,402.31 -84.76,207.12 -402.21,189.21 -226.5,-12.79 -475.69,20.47 -690.71,-27.6 -9.82,-349.85 49.1,-100.91 198.71,-317.98 -127.5,-202.77 -61.79,13.61 -177.13,-148.57 50.06,-295.15 30.49,-47.33 182.29,-246.03 -77.84,-119.94 -62.19,-60.76 -87.18,-90.26zm-2136.41 952.01c-105.5,-160.77 -37.37,-567.46 -30,-782.89 15.4,-449.64 36.29,-386.21 447.06,-391.48l1282.84 -10.12c217.29,-6.36 239.57,-45.56 282.98,126.79 -91.38,177.99 21.1,0.55 -122.09,82.58 -113.39,64.94 8.25,-93.58 -100.75,73.91 105.99,283.95 182.42,-35.39 219.3,204.87 36.34,236.71 -86.58,15.91 -214.35,189.73 54.04,143.24 22.56,105.43 194.38,144.77l-90.6 383.81c-278.83,26.65 -1712.71,78.46 -1868.77,-21.97zm-5914.09 -785.61c-528.46,176.61 -680.6,-728.13 -218.34,-939.62 243.89,-111.57 449.35,72.11 489.25,318.85 27.65,171.02 28.32,264.34 -98.5,359.84 -216.34,162.91 -53.37,61.81 -172.41,260.93zm7728.01 -546.92c-149.19,101.5 -1511.42,119.71 -1688.45,31.85 14.88,-158.34 564.61,-106.66 835.06,-105.72 159.27,0.55 305.96,6.88 465.87,-4.42 446.64,-31.55 344.22,-17.68 387.52,78.29zm-5520.38 -61.67c237.5,-31.16 430.2,-42.14 670.54,-43.25 217.01,-0.99 452.88,-31.38 565.9,159.41 149.01,251.58 268.35,161.84 559.41,161.75 387.21,-0.12 349.13,62.83 502.52,-237.74l1443.04 -33.47c-35.84,269.89 -77.33,66.38 -127,290.01 -25.67,115.6 2.29,231.94 -23.55,361.69 -161.97,87.78 -496.57,27.33 -708.87,15.34 -567.06,-32.01 -334.58,128.99 -583.74,164.3 -613.69,86.95 -1000.43,-70.42 -1326.34,-100.19 -92.72,-389.56 122.17,-416.54 -457.13,-417.52 -474.53,-0.78 -361.68,27.68 -421.68,413.56 -321.73,38.83 -1130.97,-72.11 -1351.9,129.19 -60.77,95.22 -35.87,284.48 -51.26,417.4 -236.71,3.78 -354.35,-84.6 -472.99,-266.96 -89.23,-137.15 -199.35,-360.55 -197.93,-516.48 252.83,-14.96 96.35,77.17 398.04,101.89l975.19 -9.62c213.99,-24.86 177.6,-114.67 268.59,-261.2l242.43 -26.46 96.73 -301.65zm-1806.24 381.97c-106.23,-136.06 6.97,-60.24 -33.39,-477.11 124.19,-33.23 202.02,-15.54 339.25,4.1 159.36,22.79 163.89,13.77 201.87,147.92 -312.15,127.34 -331.64,-6.84 -507.73,325.09zm5464.38 -1196.57c232,-22.29 652.85,-22.61 875,27.48 169.83,225.29 137.59,374.91 105.48,661.62 -204.45,79.07 -774.63,40.53 -1023.25,62.37l42.77 -751.47zm2287.28 37.38c145.01,22.81 137.05,-36.9 149.19,161.56 5.5,89.9 -18.59,180.93 -46.43,264.57l-194.31 8.5 91.55 -434.63zm-4077.41 -328.53c1.47,-0.71 1295.5,41.67 1388.62,46.83 330.24,18.3 327.93,88.19 315.28,406.77 -6.93,174.57 29.56,459.34 -159.71,540.65 -101.33,43.52 -1324.12,80.5 -1408.84,44.32 -400.61,-171.02 -314.72,-953.03 -135.35,-1038.57zm4300.66 339.36l860.53 -9.99 -14.9 342.12c-196.7,75.57 -637.62,81.62 -854.59,36.46l8.96 -368.59zm-617.73 227.19l262.89 -9.03c-92.61,291.83 -186.39,417.88 -494.83,419.02l231.94 -409.99zm-381.13 -14.61l257.71 -1.44c-133.66,376.77 -210.42,460.67 -614.87,440.53l357.16 -439.09zm1965.13 215.31c-48.96,-149.54 -81.16,-525.56 112.79,-528.12 16.31,108.96 12.64,202.88 2.16,313.99 -17.7,187.47 1.73,160.32 -114.95,214.13zm-6284.67 -415.93c72.9,207.25 -58.64,315.81 -162.93,204.96 -72.59,-77.15 -68.45,-268.93 162.93,-204.96zm6534.4 -74.64c371.82,-10.65 746.45,55.1 1097.36,-49.19 318.46,-94.65 563.77,-137.93 835.99,101.14 -20.81,187.7 -145.75,440.15 -305.12,521.34 -180.74,-52.92 -276.13,-237.7 -465.2,-318.62 -120.7,-51.65 -502.55,-31.21 -600.07,30.37 251.84,209.82 152.13,-81.18 694.94,85.61l-91.33 282c-553.92,-193.48 -593.84,-258.9 -1227.93,-267.85l61.36 -384.8zm-6382.91 -158.44c115.01,-54.42 531.04,-39.88 679.04,-28.27l-43.57 650.56 -535.96 -18.33c-111.74,-182.06 -162.6,-398.33 -99.51,-603.96zm4384.91 -23.57c299.35,31.24 361.3,33.06 403.61,372.83l-279.32 -3.92 -124.29 -368.91zm-433.37 -23.89l307.64 17.6 145.91 371.08c-316.42,-5.59 -390.83,-41.92 -453.55,-388.68zm-831.4 -267.07c233,-4.51 480.34,-117.45 708.34,-69.57 82.25,247.52 -6.08,213.76 4.7,361.34 9.69,132.74 362.72,527.41 -79.14,747.68 58.97,-861.14 -399.54,-663.55 -1062.75,-706.38 -123.79,-101.2 -89.66,-167.6 -269.54,-187.81 -191.12,-21.48 -744.91,30.34 -1325.13,-45.03 88.72,-173.99 358.4,-252.81 551.66,-285.41 293.15,-49.43 403.33,103.61 735.73,80.65 136.65,-9.44 289.81,-34.31 421.59,1.24 167.18,45.08 86.11,107.69 314.54,103.29zm4026.64 -449.38c187.42,85.51 618.32,752.59 -128.39,846.78 219.63,-431.32 205,-197.57 0.39,-615.75l128 -231.03z"/>
    <path class="fil5" d="M15823.39 7297.68l-96.74 301.64 -242.42 26.46c-91,146.53 -54.6,236.34 -268.59,261.2l-975.2 9.62c-301.69,-24.72 -145.22,-116.86 -398.04,-101.89 -1.42,155.92 108.7,379.33 197.93,516.47 118.65,182.37 236.28,270.75 472.98,266.97 15.4,-132.92 -9.5,-322.19 51.27,-417.4 220.93,-201.3 1030.17,-90.36 1351.9,-129.19 59.99,-385.88 -52.85,-414.34 421.68,-413.56 579.31,0.98 364.41,27.96 457.13,417.52 325.91,29.78 712.65,187.14 1326.34,100.19 249.16,-35.31 16.68,-196.31 583.73,-164.29 212.31,11.98 546.91,72.43 708.88,-15.35 25.84,-129.75 -2.12,-246.09 23.55,-361.69 49.67,-223.63 91.16,-20.12 127,-290.02l-1443.04 33.48c-153.39,300.56 -115.31,237.62 -502.52,237.74 -291.06,0.09 -410.4,89.83 -559.41,-161.74 -113.02,-190.81 -348.89,-160.41 -565.9,-159.42 -240.33,1.11 -433.04,12.09 -670.53,43.26z"/>
    <path class="fil6" d="M20164.55 8321.37c251.44,28.1 656.14,-46.12 827.46,137.12 -146.99,92.24 -1185.98,108.12 -1358.5,14.31 84.76,-176.86 78.47,-102.32 254.98,-150.08 129.9,-35.15 517.84,-304.38 639.6,-442.68 -183.61,7.92 -492.31,120.62 -599.57,-59.27 72.02,-61.65 915.09,-223.97 1173.68,2.65l-937.65 497.95zm-634.71 370.5c156.06,100.43 1589.94,48.62 1868.77,21.97l90.6 -383.81c-171.82,-39.34 -140.34,-1.53 -194.38,-144.77 127.77,-173.82 250.69,46.98 214.35,-189.73 -36.88,-240.26 -113.31,79.08 -219.3,-204.87 109,-167.49 -12.64,-8.97 100.75,-73.91 143.19,-82.03 30.71,95.41 122.08,-82.58 -43.4,-172.35 -65.68,-133.16 -282.97,-126.79l-1282.84 10.12c-410.77,5.27 -431.66,-58.16 -447.06,391.48 -7.37,215.43 -75.5,622.12 30,782.89z"/>
    <path class="fil6" d="M18083.92 6924.24c-140.29,-166.37 -144.87,-310.46 47.45,-405.16 97.25,65.4 36.11,-6.13 103.23,137.53 120.52,-101.95 16.61,-56.1 158.41,-83.75 112.1,158.26 91.8,159 34.91,341.21 -152.17,7.08 -109.3,25.26 -181.83,-127.71 -110.76,116.17 -21.12,85.79 -162.17,137.88zm-281.68 -268.67l-44.68 -64.14c81.12,-106.71 57.83,-97.17 176,-64.12 -2.22,160.67 -10.38,121.59 -112.15,251.08 152.85,88.47 71.08,-26.8 154.07,117.4l-299.77 -45.53 126.53 -194.69zm-110.85 -463.65c-179.37,85.53 -265.25,867.55 135.35,1038.58 84.72,36.17 1307.52,-0.81 1408.84,-44.33 189.28,-81.31 152.78,-366.08 159.71,-540.65 12.65,-318.58 14.96,-388.47 -315.28,-406.77 -93.12,-5.15 -1387.16,-47.54 -1388.62,-46.83z"/>
    <path class="fil6" d="M16662 8154.97c-18.44,180.51 -41.72,393.16 9.23,560.1 528.29,145.49 953.72,57.38 1335.76,50.96 175.79,-2.95 335.27,30.51 504.45,29.6 95.83,-183.66 97.46,-525.93 82.38,-740.21 -405.28,-45.54 -106.05,115.29 -392.56,176.63 -142.13,30.43 -938.57,25.71 -1071.2,-21.28 -230.49,-81.64 -168.33,-106.95 -468.06,-55.8z"/>
    <path class="fil6" d="M17921.76 6095.86c580.22,75.38 1134.01,23.56 1325.13,45.03 179.88,20.21 145.75,86.61 269.54,187.82 663.21,42.82 1121.73,-154.78 1062.75,706.37 441.86,-220.27 88.83,-614.95 79.14,-747.68 -10.78,-147.58 77.55,-113.83 -4.7,-361.34 -228,-47.88 -475.34,65.06 -708.34,69.57 -228.43,4.4 -147.36,-58.21 -314.54,-103.29 -131.78,-35.55 -284.94,-10.68 -421.59,-1.24 -332.4,22.96 -442.57,-130.08 -735.74,-80.65 -193.25,32.6 -462.93,111.42 -551.65,285.41z"/>
    <path class="fil6" d="M21597.12 7630.09c3.28,10.93 11.55,14.66 14.76,30.81l54.37 78.96c24.99,29.5 9.34,-29.68 87.18,90.26 -151.8,198.7 -132.23,-49.12 -182.29,246.03 115.34,162.18 49.63,-54.2 177.13,148.57 -149.61,217.07 -208.53,-31.88 -198.71,317.98 215.02,48.06 464.21,14.81 690.71,27.59 317.45,17.92 335.25,213.11 402.22,-189.21 -187.8,-231.01 -205.47,-133.51 13.78,-280.78l-131.84 -140.52c111.45,-196.3 73.74,-1.44 128.85,-208.58 -134.99,-255.24 -184.13,-198.51 -456.06,-238.24 -212.65,-31.07 -479.84,-80.99 -600.1,117.13z"/>
    <path class="fil7" d="M21809.35 9407.72c-235.54,-215.42 -115.16,-482.97 176.38,-415.68 119.68,148.88 104.73,271.83 -16.16,414.59l-160.22 1.09zm-166.3 -697.16c-616.16,255.07 -199.44,1483.89 491.94,1069.33 216.32,-129.71 343.35,-605.61 309.81,-846.18 -29.63,-212.54 -86.49,-254.14 -288.38,-261.83 -162.55,-6.18 -387.91,-13.25 -513.37,38.68z"/>
    <path class="fil6" d="M14629.68 8196.06l-34.18 379.84c750.63,-45.49 1271.22,97.08 1972.69,126.24l-0.45 -553.67c-384.7,-46.53 -1558.05,-23.77 -1938.06,47.59z"/>
    <path class="fil7" d="M16571.36 9584.13c-308.3,-52.11 -270.2,-281.59 -79.68,-443.9 313.55,30.92 332.34,299.99 79.68,443.9zm-234.12 -743.96c-604.4,196.27 -247.64,1428.28 450.33,1106.7 274.87,-126.64 390.08,-511.53 333.08,-813.64 -37.79,-200.28 -86.34,-250.18 -277.41,-268.49 -116.57,-11.16 -412.14,-55.07 -506,-24.57z"/>
    <path class="fil6" d="M23208.05 6468.6l-61.36 384.8c634.09,8.95 674.01,74.36 1227.93,267.85l91.33 -282c-542.8,-166.78 -443.1,124.22 -694.95,-85.61 97.53,-61.58 479.38,-82.02 600.08,-30.37 189.07,80.92 284.46,265.7 465.2,318.62 159.36,-81.19 284.3,-333.64 305.12,-521.34 -272.22,-239.07 -517.53,-195.79 -835.99,-101.14 -350.91,104.29 -725.54,38.54 -1097.36,49.19z"/>
    <path class="fil7" d="M19099.19 9092.83c207.9,-164.29 403.4,216.6 228.3,356.17 -241.55,192.53 -402.26,-218.7 -228.3,-356.17zm186.71 -418.42c-142.69,265.27 -62.26,221.88 -349.31,240.71 -424.29,27.84 -397.81,941.92 240.04,1003.71 210.29,20.37 292.65,-1.21 410.38,-167.38 59.59,-84.13 172.19,-294.2 191.73,-394.12 104.47,-534.11 -244.92,-534.93 -284.23,-551.59 -172.61,-73.12 -20.02,-63.2 -208.61,-131.33z"/>
    <path class="fil6" d="M22777.84 7789.34c67.64,177.11 29.07,-5.16 110.53,159.54 -62.91,174.35 -31.39,14.04 -148.64,157.44 111.3,101.62 92.69,9.29 143.03,156.35 -120.37,128.8 -156.77,-1.62 -139.17,190.87 23.49,257.05 787.35,171.06 954.74,152.02 188.54,-967.79 66.35,-888.7 -476.11,-962.33 -228.85,-31.08 -322.43,-79.69 -444.38,146.11z"/>
    <path class="fil7" d="M18021.21 9164.13c237.54,559.56 -582.17,490.2 -240.91,-36.23l240.91 36.23zm-552.32 -257.91c-359.61,864.18 334.78,1343.35 773.76,899.28 235.55,-238.27 293.05,-452.07 155,-793.26 -113.4,-280.28 -688.51,-154.84 -928.76,-106.02z"/>
    <path class="fil7" d="M23287.24 9170.96c19.09,381.53 -325.48,381.36 -376.48,184.28 -54.23,-209.49 132.36,-409.28 376.48,-184.28zm-329.25 -392.94c-611.35,211.93 -400.47,1426.47 301.09,1120.12 598.76,-261.47 399.48,-1362.98 -301.09,-1120.12z"/>
    <path class="fil7" d="M20342.24 9440.77c-54.16,-166.82 -50.78,-199.24 44.6,-336.88 160.62,-41.52 154.14,-41.78 280.74,41.66 68.63,281.48 -69.19,383.41 -325.34,295.22zm683.52 -579.42c-231.21,-7.36 -745.67,-57.08 -903.76,92.55 -177.72,168.2 -133.24,646.37 40.61,787.94 389.22,317 1192.81,-135.15 863.15,-880.49z"/>
    <path class="fil6" d="M19438.75 7234.54c248.62,-21.84 818.8,16.7 1023.25,-62.37 32.11,-286.71 64.35,-436.33 -105.48,-661.62 -222.15,-50.09 -643,-49.77 -875,-27.47l-42.77 751.46z"/>
    <path class="fil6" d="M13615.75 7906.26c119.04,-199.12 -43.92,-98.02 172.41,-260.93 126.82,-95.5 126.15,-188.82 98.5,-359.84 -39.9,-246.73 -245.36,-430.42 -489.25,-318.85 -462.26,211.49 -310.12,1116.23 218.34,939.62z"/>
    <path class="fil8" d="M19928.52 7820.77c107.26,179.89 415.96,67.19 599.57,59.27 -121.76,138.3 -509.7,407.53 -639.6,442.68 -176.51,47.76 -170.22,-26.78 -254.98,150.08 172.52,93.81 1211.51,77.93 1358.5,-14.31 -171.32,-183.24 -576.02,-109.02 -827.46,-137.12l937.65 -497.95c-258.59,-226.62 -1101.66,-64.3 -1173.68,-2.65z"/>
    <path class="fil6" d="M18667.12 8804.64l232.34 1.35 38.8 -0.03c251.21,-0.16 169.03,-1.44 274.76,-187.66l191.16 -23.32 4.45 -516.34 -696.18 -18.97 -45.33 744.97z"/>
    <path class="fil6" d="M16825.14 6310.16c-63.09,205.63 -12.23,421.9 99.51,603.96l535.96 18.33 43.58 -650.56c-148.01,-11.61 -564.04,-26.15 -679.05,28.27z"/>
    <path class="fil6" d="M23882 7808.04c-54.59,178.01 -81.23,515.57 -26.16,667.57 213.26,112.54 582.46,-272.5 802.55,-350.77 -168.05,-372.49 -533.97,-405.56 -776.39,-316.8z"/>
    <path class="fil9" d="M15120.34 9324.31c323.62,231.67 39.57,-62.61 791.31,97.79 56.36,-119.82 47.13,-241.14 106.74,-375.52 60.21,-135.71 173.6,-195.39 190.32,-284l-607.02 -87.06c-52.02,169.98 12.51,266 -133.37,446.43 -135.85,168.01 -228.29,111.21 -347.98,202.36z"/>
    <path class="fil6" d="M14098.48 7811.94c776.06,-3.52 1355.59,104.27 1172.82,-358.06 -182.37,-28.66 -492.24,-9.05 -684.68,6.71 -321.01,26.29 -414.36,2.46 -488.14,351.35z"/>
    <path class="fil6" d="M21983.09 6899.87c216.97,45.16 657.89,39.11 854.59,-36.46l14.9 -342.13 -860.53 10 -8.96 368.59z"/>
    <path class="fil10" d="M19655.31 7391.19c177.03,87.86 1539.26,69.65 1688.44,-31.85 -43.29,-95.97 59.13,-109.84 -387.51,-78.29 -159.9,11.3 -306.6,4.97 -465.87,4.42 -270.45,-0.94 -820.18,-52.63 -835.06,105.72z"/>
    <path class="fil7" d="M14690.23 8715.39c-58.92,302.09 168.77,495.3 443.64,479.86 299.52,-16.84 485.92,-491.46 158.01,-543.58 -38.36,119.11 29.77,297.09 -159.52,336.24 -267.98,55.42 -223.43,-201.51 -271.55,-315.07l-170.58 42.55z"/>
    <path class="fil11" d="M23843.92 5777.28c204.61,418.18 219.23,184.43 -0.39,615.75 746.71,-94.19 315.81,-761.27 128.39,-846.78l-128 231.03z"/>
    <path class="fil6" d="M15999.01 8030.81l675.52 -1.13c21.33,-157.77 29.73,-177.5 -10.06,-296.05l-622.66 -15.38 -42.8 312.56z"/>
    <path class="fil12" d="M24448.1 8796.8l-214.32 19.7c-60.33,-162.92 -58.66,-112.14 -0.41,-261.03 115.15,-47.02 109.72,-45.7 232.44,12.51l-17.71 228.82zm23.87 148.53c115.45,-247.33 155.23,-261.79 70.58,-536.04 -180.36,-23.17 -381.45,17.83 -446.82,211.23 -104.94,310.49 138.68,351.94 376.24,324.81z"/>
    <path class="fil11" d="M20636.03 7182.96c404.45,20.13 481.21,-63.77 614.87,-440.54l-257.71 1.44 -357.16 439.1z"/>
    <path class="fil13" d="M14017.14 7679.65c176.09,-331.94 195.58,-197.76 507.73,-325.1 -37.98,-134.15 -42.51,-125.13 -201.87,-147.92 -137.23,-19.63 -215.06,-37.33 -339.25,-4.1 40.35,416.87 -72.84,341.05 33.39,477.12z"/>
    <path class="fil14" d="M11724.79 9485.8c174.97,31 361.43,29.85 533.62,49.47 196.84,22.43 358.17,123.61 420.9,-39.34 -151.96,-70.18 -354.09,-10.74 -527.09,-58.38 -168.5,-46.39 -132.9,-179.34 -356.1,-130.15 -20.21,54.72 -47.62,107.62 -77.17,154.5l5.84 23.9z"/>
    <path class="fil15" d="M18356.22 6656.06c61.78,89.53 67.18,71.08 0,176.41 -54.13,-96.94 -47.94,-78.57 0,-176.41zm-223.71 180.62c-108.12,-104.74 -105.51,-127.69 -9.1,-218.63l9.1 218.63zm-48.59 87.56c141.05,-52.09 51.41,-21.71 162.17,-137.88 72.53,152.97 29.66,134.79 181.83,127.71 56.89,-182.21 77.19,-182.95 -34.91,-341.21 -141.8,27.65 -37.89,-18.2 -158.41,83.75 -67.12,-143.66 -5.98,-72.13 -103.23,-137.53 -192.32,94.7 -187.74,238.79 -47.45,405.16z"/>
    <path class="fil13" d="M21230.23 6651.38l-145.91 -371.07 -307.64 -17.61c62.72,346.76 137.13,383.09 453.55,388.68z"/>
    <path class="fil11" d="M21142.38 7168.46c308.44,-1.14 402.22,-127.19 494.83,-419.03l-262.89 9.04 -231.94 409.99z"/>
    <path class="fil4" d="M16536.7 9256.98c61.23,0.64 69.74,27.3 93.07,111.75 -54.53,116.64 -31.33,107.23 -143.8,85.73 -43.39,-113.02 -53.76,-127.06 50.73,-197.48zm34.66 327.15c252.66,-143.91 233.87,-412.98 -79.68,-443.9 -190.52,162.31 -228.62,391.79 79.68,443.9z"/>
    <path class="fil4" d="M17920.58 9433.69c-111.28,0.64 -129.44,34.14 -124.04,-119.69 87.45,-64.22 -14.04,-57.31 146.61,-38.7 32.18,126.24 51.72,39.04 -22.57,158.39zm100.63 -269.56l-240.91 -36.23c-341.26,526.43 478.45,595.79 240.91,36.23z"/>
    <path class="fil11" d="M21334.34 6655.5l279.31 3.92c-42.3,-339.77 -104.25,-341.59 -403.6,-372.83l124.29 368.91z"/>
    <path class="fil4" d="M19168.53 9379.72c-66.81,-104.31 -78.72,-133.99 43.75,-220.21 149.42,103.62 116.45,176.49 -43.75,220.21zm-69.34 -286.89c-173.96,137.47 -13.25,548.7 228.3,356.17 175.1,-139.57 -20.4,-520.46 -228.3,-356.17z"/>
    <path class="fil4" d="M23131.59 9162.82c86.26,88 77.97,48.87 46.05,178.45 -156.55,43.23 -86.56,30.46 -160.73,-26.85 -26.82,-123.78 28.05,-123.17 114.68,-151.6zm155.65 8.14c-244.12,-225 -430.71,-25.21 -376.48,184.28 51,197.08 395.57,197.25 376.48,-184.28z"/>
    <path class="fil4" d="M21776.19 9248.76c21.71,-121.83 21.32,-162.44 157.89,-170.37 79.81,112.89 59.63,196.02 -81.05,231.07l-76.84 -60.7zm33.16 158.96l160.22 -1.09c120.89,-142.76 135.84,-265.71 16.16,-414.59 -291.54,-67.29 -411.92,200.26 -176.38,415.68z"/>
    <path class="fil4" d="M20569.41 9209.56c33.91,153.02 -10.71,216 -172.57,125.19 -4.19,-145.64 42.9,-184.18 172.57,-125.19zm-227.17 231.21c256.15,88.19 393.97,-13.74 325.34,-295.22 -126.6,-83.44 -120.12,-83.18 -280.74,-41.66 -95.38,137.64 -98.76,170.06 -44.6,336.88z"/>
    <path class="fil16" d="M14303.99 8751.61c-24.86,-123.92 -239.95,-272.08 -363.77,-291.46 -69.8,347.63 203.09,473.68 363.77,291.46z"/>
    <path class="fil9" d="M23542.84 8743.79l101.49 174.23c166.39,-86.68 266.95,-88.66 359.4,-259.25 -221.41,-122.09 -194.92,-21.23 -460.89,85.02z"/>
    <path class="fil11" d="M21677.25 6955.08l194.31 -8.5c27.84,-83.64 51.93,-174.68 46.43,-264.57 -12.14,-198.46 -4.18,-138.76 -149.19,-161.56l-91.55 434.63z"/>
    <path class="fil11" d="M22958.32 6959.17c116.68,-53.81 97.25,-26.67 114.95,-214.13 10.48,-111.11 14.14,-205.03 -2.16,-313.99 -193.96,2.56 -161.75,378.58 -112.79,528.12z"/>
    <path class="fil17" d="M24465.81 8567.98c-122.72,-58.21 -117.29,-59.53 -232.44,-12.51 -58.25,148.89 -59.92,98.11 0.41,261.03l214.32 -19.7 17.71 -228.82z"/>
    <path class="fil18" d="M17802.24 6655.57l78.05 -60.63 -78.05 60.63zm0 0l-126.53 194.69 299.77 45.53c-82.99,-144.2 -1.22,-28.93 -154.07,-117.4 101.77,-129.49 109.93,-90.41 112.15,-251.08 -118.17,-33.05 -94.88,-42.59 -176,64.12l44.68 64.14z"/>
    <path class="fil19" d="M16673.65 6543.24c-231.38,-63.97 -235.52,127.81 -162.93,204.96 104.29,110.85 235.83,2.3 162.93,-204.96z"/>
    <path class="fil20" d="M23692.25 9035.56l27.43 149.16c107.28,-112.85 261.11,-144.3 289.69,-316.59l-317.12 167.43z"/>
    <path class="fil20" d="M21776.19 9248.76l76.84 60.7c140.68,-35.05 160.86,-118.18 81.05,-231.07 -136.57,7.93 -136.18,48.54 -157.89,170.37z"/>
    <path class="fil20" d="M14954.73 8777.15c86.33,105.55 109.12,105.53 241.51,93.88 -14.95,-228.75 -113.28,-252.43 -241.51,-93.88z"/>
    <path class="fil21" d="M22546.01 8962.66c98.54,-57.17 20.52,0.34 90.71,-89.03 59.17,-75.32 71.41,-82.83 138.5,-175.19l-256.37 54.84 27.16 209.38z"/>
    <path class="fil20" d="M20396.84 9334.75c161.86,90.81 206.48,27.83 172.57,-125.19 -129.67,-58.99 -176.76,-20.45 -172.57,125.19z"/>
    <path class="fil20" d="M23177.64 9341.27c31.92,-129.58 40.21,-90.45 -46.05,-178.45 -86.63,28.43 -141.5,27.82 -114.68,151.6 74.17,57.31 4.18,70.08 160.73,26.85z"/>
    <path class="fil20" d="M19168.53 9379.72c160.2,-43.72 193.17,-116.59 43.75,-220.21 -122.47,86.22 -110.56,115.9 -43.75,220.21z"/>
    <path class="fil20" d="M16536.7 9256.98c-104.49,70.42 -94.12,84.46 -50.73,197.48 112.47,21.5 89.27,30.91 143.8,-85.73 -23.33,-84.45 -31.84,-111.11 -93.07,-111.75z"/>
    <path class="fil20" d="M17796.54 9314c-5.4,153.83 12.76,120.33 124.04,119.69 74.29,-119.35 54.75,-32.15 22.57,-158.39 -160.65,-18.61 -59.16,-25.52 -146.61,38.7z"/>
    <path class="fil22" d="M18123.41 6618.05c-96.41,90.94 -99.02,113.89 9.1,218.63l-9.1 -218.63z"/>
    <path class="fil23" d="M18356.22 6832.47c67.18,-105.33 61.78,-86.88 0,-176.41 -47.94,97.84 -54.13,79.47 0,176.41z"/>
    <path class="fil24" d="M24287.05 9132.99l48.92 -30.69 -73.14 -55.52c33.32,53.38 9.42,13.01 24.22,86.21z"/>
    <polygon class="fil25" points="17802.24,6655.57 17880.29,6594.94 "/>
   </g>
   <g>
    <path class="fil26" d="M10051.69 3771.55c-61.85,50.08 -113.92,275.12 -144.98,364.37 -40.6,116.62 -111.68,278.28 -135.32,389.92 58.85,-13.76 98.1,-44.44 152.45,-68.5 765.82,-339.04 1441.76,98.52 2121.33,36.28 348.3,-31.9 420.69,-97.32 671.47,-208.58 13.94,-68.52 -19.71,-444.7 -40.85,-502.56 -207.43,54.25 -247.03,149.92 -683.52,136.62 -400.77,-12.22 -824.68,-231.77 -1250.98,-264.94 -351.26,-27.33 -439.91,35.53 -689.6,117.39z"/>
    <path class="fil27" d="M10051.69 3771.55c249.69,-81.86 338.34,-144.72 689.6,-117.39 426.3,33.17 850.21,252.72 1250.98,264.94 436.49,13.3 476.09,-82.37 683.52,-136.62l-38.86 -509.53c-195.44,58.69 -302.27,104.37 -541.61,78.92 -370.84,-39.44 -709.28,-250.32 -1078.02,-346.54 -64.03,-16.71 -194.21,-32.54 -240.49,-47.79l-487.74 0c40.26,61.29 -134.04,463.44 -181.83,599.66 -13.58,38.69 -18.9,72.5 -36.59,112.12 -8.71,19.53 -15.08,26.41 -20.34,45.41 -3.79,13.68 -4.47,15.96 -4.36,29.53 0.25,29.54 -1.16,13.26 5.74,27.29z"/>
    <path class="fil28" d="M9305.17 5571.79l-11.06 65.48c30.38,25.77 20.29,20.07 78.67,12.75l398.61 -1124.18c23.64,-111.64 94.72,-273.3 135.32,-389.92 31.06,-89.25 83.13,-314.29 144.98,-364.37 -6.9,-14.03 -5.49,2.25 -5.74,-27.29 -0.11,-13.57 0.57,-15.85 4.36,-29.53 5.26,-19 11.63,-25.88 20.34,-45.41 17.69,-39.62 23.01,-73.43 36.59,-112.12 47.79,-136.22 222.09,-538.37 181.83,-599.66l-39.79 0c-51.78,55.22 -697.65,1926.43 -824.28,2294.41l-97.94 279.19c-23.66,53.13 19.99,-39.9 -10.11,20.29l-11.78 20.36z"/>
   </g>
   <g>
    <path class="fil29" d="M10996.97 8204.28c-147.13,-32.53 -276.44,79.99 -356.28,194.57 -151.21,217.02 -200.86,666.87 -61.1,906.27 57.85,99.1 189.01,233.29 300.67,263.05 136.99,36.51 284.18,-86.48 364.64,-188.21 88.4,-111.75 128.56,-287.74 137.83,-428.46 10.51,-159.47 -18.11,-336.95 -84.37,-482.77 -66.16,-145.62 -142.96,-229.43 -301.39,-264.45zm-312.75 2213.81l44.08 0c19.22,-4.35 35.91,-16.2 48.36,-41.4l104.7 0c18.59,37.2 30.94,45.74 71.25,37.49 156.75,-32.08 87.73,-67.48 133.55,-89.47 11.83,-5.67 72.89,-24.68 86.65,-25.55 30.98,9.87 2.62,60.11 127.12,-11.41 77.22,-44.36 27.81,-73.52 75.57,-106.51 8.34,-5.77 50.47,-36.48 54.82,-37.43 27.62,-5.95 27.2,23.71 63.78,-1.35 26.76,-18.33 66.32,-70 82.48,-100.11 20.2,-37.64 -5.9,-42.9 1.53,-70.48 2.16,-8 28.21,-43.81 34.36,-52.41 30.91,-43.21 13.99,-26.51 59.12,-34.52 34.67,-6.16 63.37,-73.09 76.81,-105.55 33.97,-82 -52.22,-36.45 46.13,-189.38 54.98,0 56.53,-17.76 81.83,-118.24 20.35,-80.86 -42.96,-38.82 -10.56,-146.43 10.74,-35.69 -1.06,-45.99 32.92,-67.07 26.8,-16.64 31.82,-26.94 35.21,-58.85 6.44,-60.75 21.97,-109.54 -34.7,-147.66 9.05,-38.18 5.82,-76.88 5.82,-118.3 30.71,-15.69 43.79,-28.45 46.53,-60.62l0 -53.75c-7.28,-133.79 -69.8,-25.94 -69.8,-234.61 47.96,-24.5 31.34,-65.77 21.88,-110.97 -8.49,-40.6 -17.43,-85.46 -68.41,-90.14 -0.04,-41.33 -34.72,-105.12 -22.47,-129.21 27.68,-54.42 39.06,-2.47 -0.06,-114.04 -31.58,-90.06 -56.58,-60.95 -78.52,-79.86 -4.44,-3.84 -42.11,-92.48 -50.18,-108.68 24.26,-37.71 33.66,-42.77 7.14,-84.11 -8.82,-13.74 -41.35,-64.98 -50.8,-72.59 -35.58,-28.68 -42.53,20.11 -84.46,-38.32 -15.73,-21.91 -39.91,-46.36 -52.18,-65.23 4.34,-49.59 23.61,-45.28 -15.87,-84.38 -19.11,-18.92 -41.52,-45.71 -64.15,-59.5 -38.42,-23.41 -39.88,26.4 -80.56,-5.87 -27.49,-21.81 -37.14,-33.5 -72.08,-51.36 0,-34.84 -6.36,-92.46 -58.17,-77.65 -24.02,-7.77 -60.2,-27.72 -81.12,-17.14 -26.65,13.49 -47.66,41.26 -79.94,8.1l-68.81 -16.62c-8.83,-31.48 -5.48,-51.39 -38.79,-60.04 -26.38,-6.86 -70.71,-8.73 -97.77,-6.39l-35.29 42.49 -115.94 1.88 -32.38 -42.4c-33.12,-0.55 -53.79,4.23 -84.72,14.08 -34.9,11.11 -34.85,10.59 -48.03,44.56 -14.28,36.83 -19.66,25.94 -55.73,38.78 -81.18,28.93 -56.09,34.24 -109.14,-9.46 -44.83,14.92 -106.26,43.71 -112.05,92.03 -5.44,45.43 -6.32,29.58 -41.58,58.11 -19.78,16.01 -36.88,33.49 -57.29,47.29 -49.96,-13.09 -37.22,-28.64 -78.39,15.58 -104.6,112.34 -6.73,84.13 -64.77,158.9 -11.79,15.19 -39.63,55.29 -46.26,71.87l-54.85 -0.97c-17.2,22.05 -32.14,47.32 -44.17,71.82 -29.02,59.12 -19.38,33.36 -6,90.1 6.48,27.51 -16.76,55.2 -28.57,80.36 -28.49,60.69 -6.65,46.22 -69.18,55.2 -16.83,24.86 -26.75,52.59 -34.89,81.51 -19.53,69.42 -8.35,40.88 11.24,90.16 10.92,27.5 -8.67,66.87 -13.9,96.9 -10.68,61.26 -8.31,35.93 -54.97,62.82 -12.74,36.18 -27.23,124.35 -1.69,153.3 30.46,34.52 25.48,18.37 20.21,69.7 -3.12,30.38 -2.08,61.37 -5.27,92.25 -46.11,19.96 -45.96,26.25 -45.11,76.75 0.58,33.97 -6.31,78.02 20.14,102.44 46.24,42.7 27.99,24.26 33.31,92.46 3.88,49.7 19.73,59.18 -24.95,86.19 -8.65,40.22 -1.17,52.99 -1.75,90.35 -76.84,9.05 -201.34,-9.55 -283.58,-10.55 -225.59,-2.73 -344.88,-108 -488.75,-107.77 -75.71,0.12 -225.99,8.03 -293,-5.82 2.08,38.57 17.12,27.49 -3.65,51.29 -47.3,17.81 -8.15,84.07 4.81,116.69 27.7,69.66 52.64,16.91 79.24,85.03 7.61,19.46 25.56,42.07 25.37,61.81 -0.29,30.22 -23.96,24.6 -11.16,59.08 13.78,37.11 44.13,69.17 64.6,100.63l52.35 0c12.16,24.64 55.82,67.86 57.15,83.17 1.94,22.48 -25.92,39.44 41.63,88.47 8.84,6.41 33.69,24.57 41.87,28.91 23.67,12.5 29.94,-0.71 53.49,-2.96 28.98,-2.77 56.37,36.94 85.04,44.93 0,35.39 -2.61,51.5 29.07,70.99 113.56,69.84 105.72,16.1 144.11,18.98 5.29,0.4 65.72,23.61 68.11,25.47 23.18,17.98 3.7,73.9 125.42,74.5 50.14,0.25 33.89,-25.8 65.24,-34.6 3.91,-1.09 74.83,-6.49 85.71,-7.48 21.93,44.39 50.79,45.16 94.74,31.32 86.36,-27.19 60.61,-29.48 79.92,-60.72 7.4,-11.97 74.08,-45.44 95.3,-32.68 50.48,30.35 1.83,14.77 113.92,14.77 11.28,22.83 37.15,50.49 54.17,69.58 44.17,49.51 -59.59,40.83 83.03,139.89 36.6,25.42 44.52,29.82 83.88,3.38l93.01 59.23c0,73.51 21.96,79.46 87.95,105.77 31.29,12.47 43.22,18.87 74.79,0.16 31.32,-18.57 28.05,-6.71 64.84,5.68 94.13,31.72 20.24,66.07 107.22,86.18 14.89,3.45 29.67,7.05 43.89,9.23zm642.53 -2609.45c-27.75,-63.04 -195.38,-155.01 -261.63,-179.16 -177.83,-64.79 -508.48,8.74 -646.73,170.7 -52.12,61.07 -148.6,187.97 -166.75,265.56 21.39,-11.33 153.47,-179.78 188.47,-213.93 82.91,-80.89 147.09,-110.02 259.48,-138.68 105.5,-26.91 241.76,-55.57 348.76,-32.99 149.23,31.48 227.82,110.11 278.4,128.5z"/>
    <path class="fil29" d="M8096.89 9335.67c34.99,-360.2 -246.02,-709.85 -498.04,-380.37 -52.58,68.73 -85.18,202.67 -95.56,288.19 -11.35,93.53 1.06,241.36 50.11,323.64 40.96,68.7 123.59,158.2 201.53,180.47 92.75,26.5 190.9,-55.07 247.37,-122.14 61.53,-73.06 85.55,-196.72 94.59,-289.79zm-38.17 -765.09c-27.67,-55.96 -130.98,-108.79 -189.44,-128.64 -138.76,-47.15 -370.08,8.23 -469.71,115.2 -42.66,45.81 -111.57,137.32 -128.3,197.73 85.77,-48.48 92.47,-188.85 332.3,-251.32 71.8,-18.71 173.69,-39.29 247.2,-25.32 37.27,7.08 74.24,21.63 108.59,36.9 35.62,15.84 72.36,46.23 99.36,55.45zm388.25 427.07c9.31,58.14 14.78,42.8 -6.86,92.42 -11.57,26.5 -7.93,71.72 15.8,89.48 34.79,-3.89 39.09,82.89 33.82,107.52 -5.82,27.08 -19.12,22.48 -26.39,44.33 -4.36,13.12 -9.67,53.12 -4.55,65.99 7.39,18.51 22.6,14.99 26.04,45.37 2.08,18.25 -6.91,47.55 -10.68,65.24 -10.63,49.86 -32.16,26.6 -45.76,92.02 -12.51,60.15 31.31,22.56 6.5,104.56 -29.7,98.21 -37.62,40.68 -64.61,82.27 -33.19,51.14 -0.01,68.6 -20.62,115.02 -34.27,77.18 -44.41,72.61 -79.87,72.61 -13.89,28.12 -28.39,32.82 -27.57,63.32 0.62,23.05 12.59,14.74 -25.52,66.05 -72.63,97.81 -58.08,10.64 -114.99,66.33 -28.18,27.58 -6.52,34.26 -34.39,59.76 -12.03,11.02 -46.75,28.99 -63.16,36.99 -44.42,21.66 -22.08,-13.83 -70.12,-7.79 -62.8,7.9 -20.74,61.56 -124.24,70.37 -63.71,5.42 -32.09,-18.82 -75.3,-24.26 -53.94,-6.8 -36.57,14.58 -67.72,26.07 -11.07,4.09 -69.6,-3.13 -83.09,-8.1 -38.46,-14.17 -21.78,-28.15 -46.77,-47.1 -69.91,-52.97 -27.44,35.12 -137.31,-25.97 -35.46,-19.72 -37.18,-23.15 -37.18,-62.74 -17.28,-8.83 -24.66,-16.44 -39.47,-25.53 -30.8,-18.92 -13.34,3.67 -46.46,0.32 -16.43,-1.66 -72.89,-44.87 -78.91,-61.5 -11.23,-31.08 7.1,-29.87 -13.64,-57.1 -62.05,-81.46 -51.98,7.19 -110.72,-100.54 -33.05,-60.62 20.23,-30.89 -15.65,-102.15 -31.49,-62.55 -38.56,-9.4 -65.11,-75.78 -37.45,-93.65 -3.45,-52.57 -3.03,-103.53 0.06,-6.43 -11.26,-51.7 -14.07,-56.52 -3.37,-5.76 -30.46,-28.05 -37.54,-32.82 11.8,49.79 7.25,47.95 -16.99,89.19 -40.45,68.84 -34.88,18.79 -66.81,56.27 -31.68,37.19 2.28,50.09 -31.48,92.21 -81.9,102.22 -50.82,23.82 -99.39,58.01 -45.84,32.26 -3.62,50.07 -89.45,93.22 -44.84,22.55 -50.15,-19.34 -93.37,5.17 -31.84,18.07 -13.97,37.39 -71.24,52.08 -66.16,16.98 -56.75,-13.64 -90.62,-20.15 -54.98,-10.58 -31.62,34.68 -90.26,28.38 -42.42,-4.57 -53.76,-10.6 -79.65,-44 -31.07,-40.08 -56.27,-8.34 -94.28,-16.03 -20.3,-4.11 -62.34,-26.5 -69.46,-48.14 -10.79,-32.76 10.96,-14.96 -20.8,-38.19 -55.43,-40.55 -38.18,31.26 -115.41,-48.1 -42.17,-43.34 1.7,-28.43 -34.61,-76.97 -37.56,-50.2 -39.73,12.14 -92.08,-84.3 -15.33,-28.23 -12.42,-19.29 -6.59,-44.67 6.9,-30.01 -8.7,-62.31 -35.64,-77.68 -27.4,-15.66 -42.97,-58.77 -45.68,-78.52 -8.32,-60.63 26.42,0.1 3,-84.88 -12.04,-43.72 3.9,-10.6 -24.25,-34.71 -13.34,-11.43 -17.66,-24.89 -22,-42.72 -21.45,-88.29 33,-57.55 14.4,-138.34 -7.98,-34.67 -13.36,-17.95 -25.25,-39.88 -13.17,-24.33 -9.72,-80.4 8.07,-100 22.95,-25.29 13.39,-3.62 16.75,-42.51 6.98,-80.97 -22.42,-36.66 -21.1,-87.04 2.8,-107.26 31.02,-55.47 44.69,-107.47 24.34,-92.61 -19.75,-46.18 2.35,-115.51 23.4,-73.41 28.93,-39.66 55.9,-67.71 36.53,-37.97 17.73,-82.45 17.69,-83.88 -0.57,-24.53 25.41,-61.17 39.36,-82.87 40.41,0 34.88,0.91 58.59,-35.14 27.19,-41.38 -5.08,-35.09 17.49,-70.37 47.25,-73.84 58.64,-42.98 83.49,-51.74 21.68,-7.63 5.42,-17.2 32.37,-16.77l23.24 -17.65c1.11,1.28 2.54,1.66 2.98,4.02l31.3 75.73c10.56,27.73 22.25,53.2 29.16,81.73 15.65,64.53 170.41,424.75 229.42,457.85 9.29,29.39 -13.63,50.02 -24.99,87.01 -10.24,33.33 -17.81,64.03 -19.94,100.24 -11.34,192.35 113.28,303.97 201.03,268.18 37.22,-15.18 113.75,-84.1 109.47,-125.44 16.81,-15.5 17.3,-58.01 74.02,1.32 48.26,50.5 177.11,104.33 262.64,91.21 7.35,-21.37 1.55,-33.03 13.82,-62.78l18.33 -3.75c21.88,-133.5 -18,-77.75 -19.1,-138.69 -1.93,-107.67 34.53,-52.83 49.98,-121.68l13.68 -55.43 -15.88 -11.05c-4.37,-25.87 3.14,-85.41 24.43,-104.23 17.9,-15.82 36.3,9.7 63.56,-72.73 13.83,-41.82 -23.23,-28.79 18.96,-104.4 15.39,-27.58 11.09,-22.33 36.44,-27.93 29.1,-6.42 17.23,-0.99 39.03,-31.13 54.52,-75.34 -15.14,-47.6 58.87,-129.3 26.63,-29.4 22.12,-10.77 47.97,-12.07 18.75,-0.94 21.53,-10.87 38.43,-24.34 29.03,-23.18 19.46,-7.66 29.36,-42.67 8.99,-31.84 46.25,-51.32 77.28,-58.32 30.76,1.72 -0.9,37.37 89.53,-0.61 42.33,-17.78 -1.99,-37.73 72.44,-56.95 24.57,-6.35 30.78,-11.48 48.07,5.71 23.61,23.48 -0.61,18.22 45.54,18.24 82.81,0.04 36.99,-32.14 98.92,-30.64 82.53,2.01 42,31.75 80.71,49.55 83.33,38.35 68.19,-28.98 153.14,16.03 29.73,15.75 16.58,16.68 24.36,40.74 6.92,21.42 50.03,52.17 71.36,51.51 10.85,-0.33 39.8,-14.64 80.93,41.82 33.45,45.91 -24.55,13.46 36.31,93 38.81,50.72 37.02,-6.5 77.49,51.35 63.49,90.72 -13.58,22.92 35.86,135.72 13.87,31.66 7.95,18.03 33.46,30.96 21.83,11.07 42.2,58.33 45.51,83.7 6.53,49.98 -25.44,14.63 -3.53,96.66 14.74,55.2 38.69,15.37 47.81,78.66z"/>
    <path class="fil30" d="M7142.03 7961.43c170.03,-29.99 242.14,-216.01 237.84,-376.68 -4.69,-174.77 -127.55,-292.83 -291.49,-320.44l-74.52 -19.06c-138.79,-23.38 -247.47,199.12 -219.09,391.92 10.49,71.3 57.08,195.23 103.72,247.97 34.04,38.49 58.31,50.74 101.17,74.48 37.88,21 103.99,29.01 142.37,1.81zm779.95 -896.81c-1.77,25.94 -12.92,51.42 7.27,73.95 19.19,21.41 47.72,11.67 75.29,20.52l-3.38 62.5c-46.4,4.85 -156.23,-23.29 -226.23,-20.34 -90.73,3.82 -67.46,117.57 -62.5,182.53 5.28,69.1 18.39,155.93 28.34,225.53 11.97,83.77 87.24,74.92 153.31,91.31 135.25,33.52 281.74,48.4 419.66,76.25 58.48,11.81 382.68,84.73 412.81,76.98 47.42,-38.03 19.33,-209.86 6.81,-267.63 -19.69,-90.88 -30.49,-144.49 -119.44,-180.26 -119.23,-47.95 -328.51,-122.66 -453.76,-141.85 -1.68,-21.26 -2.95,-58.39 6.71,-73.34 24.3,-23.56 57.01,-6.03 85.75,-48.7 9.3,12.79 243.92,88.77 281.86,102.27 34.49,12.28 262.83,103.37 274.03,98.57 39.53,62.13 92.48,295.12 108.1,376.3 26.9,139.75 40.82,287.82 56.34,429.58 11.04,100.88 60.42,887.41 44.01,916.74 -36.44,65.12 -477.22,15.68 -556.27,10.53 3.03,-26.73 1.51,-58.2 -13.72,-78.41 -9.12,-63.29 -33.07,-23.46 -47.81,-78.66 -21.91,-82.03 10.06,-46.68 3.53,-96.66 -3.31,-25.37 -23.68,-72.63 -45.51,-83.7 -25.51,-12.93 -19.59,0.7 -33.46,-30.96 -49.44,-112.8 27.63,-45 -35.86,-135.72 -40.47,-57.85 -38.68,-0.63 -77.49,-51.35 -60.86,-79.54 -2.86,-47.09 -36.31,-93 -41.13,-56.46 -70.08,-42.15 -80.93,-41.82 -21.33,0.66 -64.44,-30.09 -71.36,-51.51 -7.78,-24.06 5.37,-24.99 -24.36,-40.74 -84.95,-45.01 -69.81,22.32 -153.14,-16.03 -38.71,-17.8 1.82,-47.54 -80.71,-49.55 -61.93,-1.5 -16.11,30.68 -98.92,30.64 -46.15,-0.02 -21.93,5.24 -45.54,-18.24 -17.29,-17.19 -23.5,-12.06 -48.07,-5.71 -74.43,19.22 -30.11,39.17 -72.44,56.95 -90.43,37.98 -58.77,2.33 -89.53,0.61 -31.03,7 -68.29,26.48 -77.28,58.32 -9.9,35.01 -0.33,19.49 -29.36,42.67 -16.9,13.47 -19.68,23.4 -38.43,24.34 -25.85,1.3 -21.34,-17.33 -47.97,12.07 -74.01,81.7 -4.35,53.96 -58.87,129.3 -21.8,30.14 -9.93,24.71 -39.03,31.13 -25.35,5.6 -21.05,0.35 -36.44,27.93 -42.19,75.61 -5.13,62.58 -18.96,104.4 -27.26,82.43 -45.66,56.91 -63.56,72.73 -21.29,18.82 -28.8,78.36 -24.43,104.23l6.11 11.83c0.37,16.95 2.4,1.62 -6.83,7.89l-204.79 5.46c-11.45,-21.04 -64.86,-219.06 -68.53,-247.79 53.76,-7.24 99.17,-13.09 149.85,-33.27 45.92,-18.29 92.48,-51.82 128.01,-65.02l35.17 66.39c4.93,-6.24 13.47,6.69 0.56,-48.68 -3.91,-16.73 -4.89,-30.47 -13.72,-45.3 -14.57,-24.5 -43.76,-48.91 -68.54,-56.31l35.48 59.44c-24.81,22.52 -94.56,37.07 -128.7,47.19 -60.68,17.98 -94.49,15.49 -156.33,16.93 -6.24,-65.54 -33.21,-130.59 -38.87,-205.63 -5.32,-70.39 -18.56,-142.83 -23.61,-212.33 -29.93,-411.64 -62.29,-445.18 -35.41,-905.31 8.51,-145.77 37.08,-277.57 54.24,-419.9 -54.65,3.49 -56.74,9.54 -74.33,-4.9 241.5,8.18 471.91,16.4 710.58,63.37 205.47,40.43 448.82,69.61 646.91,131.24z"/>
    <path class="fil31" d="M10005.82 5569.67c142.45,12.46 403.24,63.27 507.64,165.29 90.29,88.23 46.34,154.73 41.86,270.59 -3.67,94.82 -20.14,212.98 -33.15,308.11 -13.77,100.64 -21.17,205.16 -32.91,306.52 -11.4,98.53 -34.09,205.59 -39.38,302.33 -7.65,139.75 -33.29,115.04 -220.45,109.49 -99.27,-2.94 -202.67,-22.29 -301.86,-32.32 -70.18,-7.1 -557.35,-59.93 -584.18,-86.88 -73.35,-73.67 241.79,-914.82 295.35,-1041.19 90.49,-213.49 106.22,-324.76 367.08,-301.94z"/>
    <path class="fil32" d="M9256.47 8961.11c32.09,76.58 266.67,82.54 316.59,43.72 28.26,-21.98 42.53,-67 23.25,-100.97 -25.65,-45.18 -56.53,4.23 -81.79,12.81 -25.21,8.57 -95.69,5.38 -123.58,2.41 -81.27,-8.64 -52.32,-25.28 -95.66,-41.7 -50.87,-19.28 -51.26,54.03 -38.81,83.73zm-19.47 -418.04c31.33,81.51 130.43,71.13 207.71,74.07 43.79,1.67 89.07,8.03 125.69,-17 30.86,-21.08 48.28,-60.22 32.44,-99.5 -22.39,-55.47 -63.56,-1.8 -84.02,6.38 -25.8,10.32 -101.97,8.46 -131.71,5.71 -88.66,-8.17 -64.47,-16.85 -101.82,-38.56 -50.65,-29.45 -63.97,28.1 -48.29,68.9zm1681.98 -2707.31c-189.76,-34.54 -197.37,110.48 -221.35,254.31 -21.7,130.12 -98.22,754.12 -99.08,867.85 -1.43,187.86 155.78,185.7 294.57,183.04 78.67,-1.51 131.57,-3.72 146.36,-93.92 24.59,-150 88.01,-456.8 121.21,-597.99 24.38,-103.73 76.87,-317.58 33.66,-413.17 -44.26,-97.88 -172.73,-181.44 -275.37,-200.12zm-967.06 -418.42c-51.97,-5.34 -212.2,-17.79 -252.64,7.26 -23.92,14.82 -71.63,148.75 -86.62,184.37 -152.72,362.79 -322.52,828.61 -414.57,1204.07 -44.68,182.25 -53.21,306.15 -51.93,493.81 1.17,171.77 2.96,347.57 21.08,518.4 35.15,331.4 26.25,319.36 193.99,346.39 82.79,13.33 169.3,17.25 253.13,17.52 97.57,0.31 115.39,-33.07 142.5,-120.99 30.3,-98.31 126.41,-267.76 179.51,-361.65 75.91,-134.24 136.52,-199.09 275.3,-264.84 64.23,-30.42 114.67,-54.9 174.77,-94.11 79.71,-52.02 94.66,-48.44 122.26,-147.82 81.41,-293.16 174.13,-1161.73 177.05,-1443.06 1.02,-99.17 -9.68,-131.88 -101.88,-169.68 -213.22,-87.4 -398.29,-145.65 -631.95,-169.67zm1474.73 571.05c12.04,20.31 -23.87,147.99 -31.36,179.25 -13.53,56.39 -29.38,114.58 -46.48,170.05 -132.25,429.08 -198.02,584.46 -261.62,1067.15 -22.92,5.75 -10.07,-0.36 -35.36,-1.31l-68.81 -16.62c-8.83,-31.48 -5.48,-51.39 -38.79,-60.04 -26.38,-6.86 -70.71,-8.73 -97.77,-6.39l-35.29 42.49 -115.94 1.88 -32.38 -42.4c-33.12,-0.55 -53.79,4.23 -84.72,14.08 -34.9,11.11 -34.85,10.59 -48.03,44.56 -14.28,36.83 -19.66,25.94 -55.73,38.78 -81.18,28.93 -56.09,34.24 -109.14,-9.46 -44.83,14.92 -106.26,43.71 -112.05,92.03 -5.44,45.43 -6.32,29.58 -41.58,58.11 -19.78,16.01 -36.88,33.49 -57.29,47.29 -49.96,-13.09 -37.22,-28.64 -78.39,15.58 -104.6,112.34 -6.73,84.13 -64.77,158.9 -11.79,15.19 -39.63,55.29 -46.26,71.87l-54.85 -0.97c-17.2,22.05 -32.14,47.32 -44.17,71.82 -29.02,59.12 -19.38,33.36 -6,90.1 6.48,27.51 -16.76,55.2 -28.57,80.36 -28.49,60.69 -6.65,46.22 -69.18,55.2 -16.83,24.86 -26.75,52.59 -34.89,81.51 -19.53,69.42 -8.35,40.88 11.24,90.16 10.92,27.5 -8.67,66.87 -13.9,96.9 -10.68,61.26 -8.31,35.93 -54.97,62.82 -12.74,36.18 -27.23,124.35 -1.69,153.3 30.46,34.52 25.48,18.37 20.21,69.7 -3.12,30.38 -2.08,61.37 -5.27,92.25 -46.11,19.96 -45.96,26.25 -45.11,76.75 0.58,33.97 -6.31,78.02 20.14,102.44 46.24,42.7 27.99,24.26 33.31,92.46 3.88,49.7 19.73,59.18 -24.95,86.19 -15.34,13.6 -5.18,3.72 -17.93,23.25l-366.87 -12.35c-35.96,-22.88 -31.09,-67.97 -34.01,-108.5l-103.4 -880.62c-23.77,-353.19 -82.87,-707.9 -63.84,-1063.05 17.46,-325.77 113.85,-610.66 214.89,-916.77 86.56,-262.27 167.14,-476.73 261.68,-728.97 6.57,-17.52 11.44,-35.92 17.63,-53.11 11.18,-31.03 22.45,-25.69 18.03,-52.03 194.2,3.3 366.67,38.09 556.84,65.6 171.21,24.76 317.66,75.29 474.62,145.86 181.19,81.46 442.42,210.45 613.87,316.5 58.9,36.44 135.41,95.57 192.47,123.91l-3.57 -26.51z"/>
    <path class="fil30" d="M9979.59 5506.81c-252.64,-33.05 -303.71,124.82 -386.35,324.18 -104.91,253.1 -208.76,555.49 -261.7,828.18 -14.36,73.95 -76.28,244.67 -6.55,290.39 40.27,26.4 536.63,77.98 622.52,89.64 106.03,14.39 216.49,32.26 323.22,34.16 142.02,2.55 202.7,34.56 214.03,-140.89 6.52,-101.08 33.37,-213.69 49.86,-315.15 38.71,-238.2 57.06,-418.01 68.24,-659.39 5.53,-119.3 5.69,-188.82 -87.99,-271.6 -104.81,-92.6 -396.6,-161.37 -535.28,-179.52zm670.6 439.63c-10.12,153.98 -33.33,312.97 -54.45,466.01 -25.68,186.1 -78.26,745.79 -179.56,870.85 -71.47,88.24 -221.73,130.71 -317.89,197.28 -131.69,91.15 -241.69,311.35 -322.34,458.91 -18.06,33.05 -70.93,158.7 -85.35,173.9 -36.26,38.21 -395.45,11.59 -434.41,-40.74 -42.64,-57.26 -60.96,-372.32 -65.69,-455.89 -20.65,-364.14 -13.25,-597.18 84.51,-949.17 106.33,-382.82 245.24,-796.43 405.89,-1161.33 38.55,-87.58 103.28,-70.17 188.13,-66.97 74.28,2.79 150.87,14.86 223.57,30.55 133.54,28.81 272.48,69.76 398.87,122.38 53.18,22.13 133.59,42.46 152.66,103.23 14.43,45.96 9.56,197.74 6.06,250.99z"/>
    <path class="fil33" d="M8807.32 5783.41c-26.22,67.85 -50.13,133.87 -72.78,203.08 -75.18,229.62 -118.55,440.5 -168.53,673.79 -45.62,212.89 -54.25,238.36 279.84,222.48 117.73,-5.59 109.76,-41.47 140.62,-141.35 21.41,-69.33 48.08,-142.03 71.67,-211.19 41,-120.19 96.33,-306.74 138.59,-420.93l149.99 -410.04c26.52,-54.23 83.72,-156.13 7.74,-194.06 -80.17,-40.01 -342.01,76.15 -421.92,121.3 -85.44,48.28 -90.57,67.22 -125.22,156.92zm474.12 3382.67c-51.12,-1.58 -21.08,12.96 -114.18,-21.92 -30.86,-11.55 -74.3,-19.76 -99.57,-39.17 9.93,-70.61 -8.8,-75.54 -24.01,-135.64 -9.11,-36.01 -19.53,-423.28 -22.08,-479.71 -8.97,-198.86 -27.25,-423.06 -47.08,-621.48 -18.23,-182.26 -40.27,-375.8 -140.01,-532.39 -107.16,-168.25 -232.9,-185.06 -385.03,-277.33 -0.9,-63.4 19.22,-138.62 27.65,-202.34 29.51,-222.75 57.72,-356.57 106.51,-577.71 25.19,-114.21 167.89,-629.05 221.12,-692.73 9.25,13.99 -8.78,12.56 19.4,2.4 58.3,-21.03 204.33,-108.14 335.25,-145.84 158.27,-45.57 267.69,-60.44 433.01,-79.19 4.42,26.34 -6.85,21 -18.03,52.03 -6.19,17.19 -11.06,35.59 -17.63,53.11 -94.54,252.24 -175.12,466.7 -261.68,728.97 -101.04,306.11 -197.43,591 -214.89,916.77 -19.03,355.15 40.07,709.86 63.84,1063.05l103.4 880.62c2.92,40.53 -1.95,85.62 34.01,108.5z"/>
    <path class="fil34" d="M10965.21 9219.26c-66.76,-29.88 -118.06,159.99 -26.22,193.69 92.24,33.86 116.88,-153.14 26.22,-193.69zm-241.23 -210.45c-68.56,-31.32 -120.47,161.28 -31.11,193.25 100.33,35.88 112.84,-155.92 31.11,-193.25zm487.3 -4.44c-70.16,-27.98 -118.55,176.57 -20.93,196.55 100.95,20.67 100.26,-164.9 20.93,-196.55zm-205.57 -282.08c-105.74,-46.2 -173.12,259.84 -35.05,298.09 136.08,37.71 171.72,-238.38 35.05,-298.09zm239.9 -107.19c-70.71,-47.55 -131.56,149.62 -38.99,188.11 89.41,37.19 123.16,-131.52 38.99,-188.11zm-499.2 -42.26c-70.17,-38.03 -125.36,153.26 -34.95,190.59 91.49,37.79 119.71,-144.65 34.95,-190.59zm245.35 -250.07c-67.5,-30.52 -120.4,161.45 -31.41,193.46 102.91,37 113.46,-156.37 31.41,-193.46zm5.21 -118.49c158.43,35.02 235.23,118.83 301.39,264.45 66.26,145.82 94.88,323.3 84.37,482.77 -9.27,140.72 -49.43,316.71 -137.83,428.46 -80.46,101.73 -227.65,224.72 -364.64,188.21 -111.66,-29.76 -242.82,-163.95 -300.67,-263.05 -139.76,-239.4 -90.11,-689.25 61.1,-906.27 79.84,-114.58 209.15,-227.1 356.28,-194.57z"/>
    <path class="fil33" d="M6165.15 8359.34c50.37,61.2 212.5,56.66 289.92,47.58 31.16,-3.65 78.11,-0.12 80.51,-41.87 3.56,-61.87 -150.1,-37.18 -191.02,-37.97 -74.42,-1.44 -234.19,-34.3 -179.41,32.26zm322.83 -277.22c-52.97,-28.28 -166.44,-22.22 -230.67,-25.56 -23.21,-1.2 -267.92,-15.7 -177.14,57.25 56.23,45.2 149.46,39.89 217.86,39.01 46.29,-0.59 204.68,1.83 189.95,-70.7zm-9.86 -267.69c-66.6,-45.69 -454.45,-35.66 -477.99,30.92 42.7,58.86 306.93,35.49 386.11,29.21 45.3,-3.59 91.34,-0.27 91.88,-60.13zm0.62 -235.48c-12.58,-66.13 -202.7,-41.16 -256.33,-39.71 -51.19,1.38 -220.17,2.64 -239.08,57.45 35.6,63.24 451.1,44.75 495.41,-17.74zm-103.24 -280.05c-63.24,-12.51 -203.62,-5.05 -267.37,11.21 -21.65,5.52 -89.97,28.12 -97.6,47.99 -15.67,40.88 76.27,30.96 101.37,31.45 32.94,0.66 398.16,11.22 367.7,-54.38 -12.14,-26.15 -80.09,-31.52 -104.1,-36.27zm144.28 -168.98c-2.84,-74.8 -150.23,-74.15 -204.55,-70.97 -177.2,10.36 -339.63,111.28 -168.44,103.75 42.34,-1.86 82.29,-4.5 124.35,-7.93 52.96,-4.3 214.16,7.3 248.64,-24.85zm44.71 -259.91c17.59,14.44 19.68,8.39 74.33,4.9 -17.16,142.33 -45.73,274.13 -54.24,419.9 -26.88,460.13 5.48,493.67 35.41,905.31 5.05,69.5 18.29,141.94 23.61,212.33 5.66,75.04 32.63,140.09 38.87,205.63 -79.2,-4.01 -225.62,-12.76 -299.38,-31.71 -42.3,-10.86 -83.61,-24.91 -125.1,-38.87 -41.62,-14.01 -92.56,-18.31 -109.55,-59.69 -59.25,-144.27 -135.21,-348.2 -165.18,-500.35 -59.73,-303.18 -46.87,-778.26 132.42,-1049.15 20.72,-31.29 15.21,-31.18 29.84,-60.95 2.3,16.76 -6.22,7.97 5.6,16.08l58.07 -6.46c51.34,22.92 112.9,9.89 170.26,7.54 46.6,-1.91 139.59,-1.05 182.53,-8.3l-3.86 -32.2 6.37 15.99z"/>
    <path class="fil31" d="M8576.06 6786.73c0.51,-113.02 174.7,-700.17 224.89,-831.42 42.89,-112.12 94.24,-258.28 205.49,-318.45 71.89,-38.88 212.53,-81.69 297.31,-95.72 55.19,-9.15 70.06,1.66 54.93,62.24 -2.97,11.88 -32.97,74.86 -40.28,90.37l-241.91 677.14c-40.75,129.21 -94.52,263.34 -131.55,391.77 -30.02,104.14 -78.35,92.31 -174.98,88.39 -57.39,-2.34 -194.29,24.72 -193.9,-64.32z"/>
    <path class="fil31" d="M11170.39 6183.04c-13.9,127.82 -108.55,572.32 -140.08,729.86 -6.89,34.41 -19.88,161.9 -42.34,176.69 -27.65,18.23 -168.53,15.44 -205.52,11.32 -66.4,-7.41 -118.43,-19.7 -128.48,-90.5 -10.36,-73.02 -11.65,-135.08 -2.68,-208.62 23.22,-190.18 74.06,-587.34 112.11,-762.86 33.17,-153.02 79.81,-211.96 236.68,-118.78 108.3,64.33 185.39,124.15 170.31,262.89z"/>
    <path class="fil35" d="M11212.89 7412.57c-24.02,-7.77 -60.2,-27.72 -81.12,-17.14 -26.65,13.49 -47.66,41.26 -79.94,8.1 25.29,0.95 12.44,7.06 35.36,1.31 63.6,-482.69 129.37,-638.07 261.62,-1067.15 17.1,-55.47 32.95,-113.66 46.48,-170.05 7.49,-31.26 43.4,-158.94 31.36,-179.25 -5.65,-115.24 -124.06,-187.04 -207.54,-249.29 -90.78,-67.7 -188.35,-116.21 -287.22,-169.25 -187.09,-100.35 -488,-168.95 -697.04,-214.1 -558.29,-120.57 -817.05,-129.47 -1302.21,135.34 -23.06,12.58 -54.13,27.17 -74.83,41.82 -25.09,17.76 -32.61,34.29 -53.05,52.75 -53.23,63.68 -195.93,578.52 -221.12,692.73 -48.79,221.14 -77,354.96 -106.51,577.71 -8.43,63.72 -28.55,138.94 -27.65,202.34 152.13,92.27 277.87,109.08 385.03,277.33 99.74,156.59 121.78,350.13 140.01,532.39 19.83,198.42 38.11,422.62 47.08,621.48 2.55,56.43 12.97,443.7 22.08,479.71 15.21,60.1 33.94,65.03 24.01,135.64 25.27,19.41 68.71,27.62 99.57,39.17 93.1,34.88 63.06,20.34 114.18,21.92l366.87 12.35c12.75,-19.53 2.59,-9.65 17.93,-23.25 -8.65,40.22 -1.17,52.99 -1.75,90.35 -76.84,9.05 -201.34,-9.55 -283.58,-10.55 -225.59,-2.73 -344.88,-108 -488.75,-107.77 -75.71,0.12 -225.99,8.03 -293,-5.82 2.08,38.57 17.12,27.49 -3.65,51.29l0 -38.12c-33.19,-17.09 -110.66,-17.74 -151.23,-17.74l11.63 62.73c-23.73,-17.76 -27.37,-62.98 -15.8,-89.48 21.64,-49.62 16.17,-34.28 6.86,-92.42 15.23,20.21 16.75,51.68 13.72,78.41 79.05,5.15 519.83,54.59 556.27,-10.53 16.41,-29.33 -32.97,-815.86 -44.01,-916.74 -15.52,-141.76 -29.44,-289.83 -56.34,-429.58 -15.62,-81.18 -68.57,-314.17 -108.1,-376.3 -20.87,-81.35 -170.55,-152.47 -242.35,-189.9 -78.3,-40.82 -223.9,-115.62 -305.8,-136.47l2.23 -32.04c21.1,-0.12 18.85,1.82 36.28,6.99 20.35,3.01 78.08,27.71 98.88,37.37 19.75,-226.07 86.2,-552.83 144.94,-775.33 39.04,-147.88 151.67,-588.91 230.4,-694.33 99.89,-133.75 460.58,-258.75 621.13,-291.08 126.37,-25.45 291.92,-39.72 417.99,-14.82 104.51,20.65 257.83,28.51 400.33,60.18 123.62,27.46 247.79,47.35 370.23,84.86 116.25,35.62 224.74,70.41 336.91,118.74 159.96,68.92 443.95,232.79 533.23,386.21 41.4,71.14 45.9,94.88 22.71,174.51 -17.68,60.72 -28.99,123.59 -45.22,184.47 -62.6,234.86 -155.6,496 -201.77,723.45 -26.62,131.17 -39.68,272.24 -68.09,398.04 30.39,14.12 42.66,0.98 52.35,28.81z"/>
    <path class="fil36" d="M8209.12 7103.51c-53.05,23.72 -173.59,19.09 -228.13,-0.44 -33.67,-12.06 -19.37,-79.67 -18.72,-109.82 4.58,-212.09 24.41,-397.45 46.49,-608.43 11.71,-111.86 101.16,-858.28 149.66,-900.72 43.83,-38.37 157.06,-9.67 197.85,25.47 76.56,65.98 40.56,93.41 23.48,188.4 -93.99,522.83 -164.94,833.79 -170.63,1405.54z"/>
    <path class="fil34" d="M7763.65 9619.59c37.24,73.38 131.87,19.28 84.66,-79.48 -47.08,-98.47 -110.1,29.38 -84.66,79.48zm-164.08 -133.7c22.52,48.93 134.6,33.53 85.83,-87.38 -41.52,-102.92 -116.1,21.58 -85.83,87.38zm424.57 -14.18c15.7,-77.98 -52.22,-166.23 -91.11,-69.7 -45.25,112.37 77.38,137.94 91.11,69.7zm-255.79 -136.04c54.91,114.57 181.06,24.03 125.22,-108.19 -63.47,-150.31 -163.63,28.05 -125.22,108.19zm235.8 -240.41c-53.72,-29.36 -99.56,128.17 -23.79,146.14 84.42,20.02 75.28,-118.01 23.79,-146.14zm-329.5 -24.87c-54.43,-40.44 -100.89,115.16 -37.46,141.56 87.87,36.56 87.38,-104.49 37.46,-141.56zm161.75 -165.11c-50.65,-28.4 -92.88,112.83 -29.41,139.47 81.92,34.39 94.9,-102.76 29.41,-139.47zm260.49 430.39c-9.04,93.07 -33.06,216.73 -94.59,289.79 -56.47,67.07 -154.62,148.64 -247.37,122.14 -77.94,-22.27 -160.57,-111.77 -201.53,-180.47 -49.05,-82.28 -61.46,-230.11 -50.11,-323.64 10.38,-85.52 42.98,-219.46 95.56,-288.19 252.02,-329.48 533.03,20.17 498.04,380.37z"/>
    <path class="fil37" d="M7991.99 7287.24c-2.3,79.72 -20.47,104.21 -36.18,171.99 -31.23,134.76 122.75,209.48 188.31,75.78 19.15,-39.06 7.39,-150.37 7.08,-198.84 40.1,-13.12 350.71,82.26 409.75,105.78 101.37,40.37 100.51,13.01 131.26,135.18 13.37,53.15 37.78,190.94 21.29,239.12 -22.4,12.83 -12.01,4.89 -33.8,-1.43 -11.7,-3.39 -27.57,-6.5 -40.49,-8.67 -184.91,-31.06 -385.85,-74.24 -562.5,-101.16 -371.53,-56.61 -284.91,-89.86 -299.45,-176.36 -10.61,-63.09 -44.76,-213.76 -19.32,-265.45 33.46,-6.45 209.97,10.85 234.05,24.06z"/>
    <path class="fil38" d="M8110.89 7182.65c-20.86,-7.37 -54.82,-14.53 -70.98,-8.06 -13.11,54.8 -10.14,135.1 -21.37,195.59 -7.62,41.08 -48.2,150.07 8.5,167.79 75.37,23.57 74.05,-98.43 74.29,-142.38 0.32,-60.57 15,-161.48 9.56,-212.94zm454 -2431.02l-36.64 0c-49.55,5.91 -97.68,34.7 -128.75,72.76 -109.17,133.69 -178.66,589.22 -201.47,611.37 -66.2,37.68 -75.26,-10.59 -91.31,102.34 -7.25,50.94 -23.35,104.19 -33.32,155.39 -20.2,103.72 -44.84,220.67 -59.18,324.29 -15.5,112.07 -31.93,223.86 -47.58,336.08 -16.1,115.4 -18.69,239.02 -30.71,355.6l-8.45 194.98 -5.5 160.18c-1.77,25.94 -12.92,51.42 7.27,73.95 19.19,21.41 47.72,11.67 75.29,20.52l-3.38 62.5 -9.17 65.65c-2.3,79.72 -20.47,104.21 -36.18,171.99 -31.23,134.76 122.75,209.48 188.31,75.78 19.15,-39.06 7.39,-150.37 7.08,-198.84 0.66,-23.3 -0.31,-53.57 8.96,-72.06 -1.68,-21.26 -2.95,-58.39 6.71,-73.34 24.3,-23.56 57.01,-6.03 85.75,-48.7 25.26,-41.91 -3.65,-74.43 7.74,-125.53l2.23 -32.04c21.1,-0.12 18.85,1.82 36.28,6.99 -13.09,-14.72 -22.06,-12.65 -35.63,-22.52 5.88,-32.82 11.99,-71.14 10.08,-103.04l52.31 -502.81c0.88,-41 86.36,-654.16 107.35,-730.53 3.68,-13.36 10.16,-26.22 13.1,-39.78 12.96,-59.91 -48.57,-98.14 -89.04,-125.47 20.14,-86.13 63.11,-361.39 162.98,-378.43 173.29,-29.56 173.84,-297.87 70.06,-331.67 -8.27,-2.7 -16.69,-4.54 -25.19,-5.61zm-355.77 2351.88c5.69,-571.75 76.64,-882.71 170.63,-1405.54 17.08,-94.99 53.08,-122.42 -23.48,-188.4 -40.79,-35.14 -154.02,-63.84 -197.85,-25.47 -48.5,42.44 -137.95,788.86 -149.66,900.72 -22.08,210.98 -41.91,396.34 -46.49,608.43 -0.65,30.15 -14.95,97.76 18.72,109.82 54.54,19.53 175.08,24.16 228.13,0.44zm103.7 -1651.61c28.41,-90.65 71.82,-313.58 116.77,-383.89 53.82,-84.21 95.44,-13.05 154.27,-97.44 31.82,-45.63 55.11,-148.89 -8.78,-180.55 -55.73,-27.61 -133.92,23.43 -163.81,69.88 -64.61,100.46 -168.41,541.08 -164.02,583.72l65.57 8.28z"/>
    <path class="fil35" d="M7935.93 6709.46l-8.45 194.98c-65.9,-11.89 -152.33,-41.93 -221.07,-58.89 -337.03,-83.14 -876.57,-181.78 -1210.87,-165.1 -220.01,10.99 -330.02,183.42 -350.02,196.91 -14.63,29.77 -9.12,29.66 -29.84,60.95 -179.29,270.89 -192.15,745.97 -132.42,1049.15 29.97,152.15 105.93,356.08 165.18,500.35 16.99,41.38 67.93,45.68 109.55,59.69 41.49,13.96 82.8,28.01 125.1,38.87 73.76,18.95 220.18,27.7 299.38,31.71 61.84,-1.44 95.65,1.05 156.33,-16.93 34.14,-10.12 103.89,-24.67 128.7,-47.19l-35.48 -59.44c24.78,7.4 53.97,31.81 68.54,56.31 8.83,14.83 9.81,28.57 13.72,45.3 12.91,55.37 4.37,42.44 -0.56,48.68l-35.17 -66.39c-35.53,13.2 -82.09,46.73 -128.01,65.02 -50.68,20.18 -96.09,26.03 -149.85,33.27 -60.89,9.49 -236.72,-10.85 -295.43,-30.74 -80.45,-27.25 -217.39,-100.72 -229.79,-103.94 11.47,41.03 78.03,155.54 102.07,199.56 37.62,68.9 62.13,135.38 139.33,164.82 101.88,38.86 533.68,30.36 557.14,12.63 9.23,-6.27 7.2,9.06 6.83,-7.89l-6.11 -11.83 15.88 11.05 -13.68 55.43 -469.58 -2.55c-46.39,-3.27 -116.68,-7.71 -146.95,-40.48l-48.73 -52.59c-59.01,-33.1 -213.77,-393.32 -229.42,-457.85 -6.91,-28.53 -18.6,-54 -29.16,-81.73l-31.3 -75.73c-0.44,-2.36 -1.87,-2.74 -2.98,-4.02l-23.24 17.65c14.06,-29.89 15.08,-7.61 13.63,-34.85 -2.28,-42.81 -97.87,-258.62 -77.63,-311.64 -33.75,-90.99 -31.36,-298.22 -16.08,-401.16 -7.8,-42.81 19.85,-124.44 15.99,-163.22 18.54,-24.44 22.78,-71.44 23.35,-104 -16.06,-50.26 58.44,-223.4 79.82,-279.66 58.37,-153.59 206.54,-315.78 377.95,-349.1 138.23,-26.87 211.73,-9.71 339.31,-10.26 97,-0.42 527.9,57.53 622.73,88.35 36.83,11.98 106.99,23.8 147.65,33.21 54.37,12.58 368.49,95.48 404.33,115.25 0,-28.39 2,-122.5 9.31,-141.96z"/>
    <path class="fil39" d="M6863.19 6804.96c-4.1,-54.09 -185.94,-80.88 -236.57,-36.35 -3.22,56.13 65.33,34.84 107.79,36.82 45.68,2.13 81.64,13.97 128.78,-0.47zm1064.29 99.48l-5.5 160.18c-198.09,-61.63 -441.44,-90.81 -646.91,-131.24 -238.67,-46.97 -469.08,-55.19 -710.58,-63.37l-6.37 -15.99c-15.71,-46.13 -145.84,-44.19 -188.24,-38.23 -32.59,4.59 -64.74,12.11 -95.74,23.42 -29.69,10.82 -65.73,12.81 -64.95,47.77l-58.07 6.46c-11.82,-8.11 -3.3,0.68 -5.6,-16.08 20,-13.49 130.01,-185.92 350.02,-196.91 334.3,-16.68 873.84,81.96 1210.87,165.1 68.74,16.96 155.17,47 221.07,58.89z"/>
    <path class="fil39" d="M11426.65 5988.39l3.57 26.51c-57.06,-28.34 -133.57,-87.47 -192.47,-123.91 -171.45,-106.05 -432.68,-235.04 -613.87,-316.5 -156.96,-70.57 -303.41,-121.1 -474.62,-145.86 -190.17,-27.51 -362.64,-62.3 -556.84,-65.6 -165.32,18.75 -274.74,33.62 -433.01,79.19 -130.92,37.7 -276.95,124.81 -335.25,145.84 -28.18,10.16 -10.15,11.59 -19.4,-2.4 20.44,-18.46 27.96,-34.99 53.05,-52.75 20.7,-14.65 51.77,-29.24 74.83,-41.82 485.16,-264.81 743.92,-255.91 1302.21,-135.34 209.04,45.15 509.95,113.75 697.04,214.1 98.87,53.04 196.44,101.55 287.22,169.25 83.48,62.25 201.89,134.05 207.54,249.29z"/>
    <path class="fil40" d="M10650.19 5946.44c3.5,-53.25 8.37,-205.03 -6.06,-250.99 -19.07,-60.77 -99.48,-81.1 -152.66,-103.23 -126.39,-52.62 -265.33,-93.57 -398.87,-122.38 -72.7,-15.69 -149.29,-27.76 -223.57,-30.55 -84.85,-3.2 -149.58,-20.61 -188.13,66.97 -160.65,364.9 -299.56,778.51 -405.89,1161.33 -97.76,351.99 -105.16,585.03 -84.51,949.17 4.73,83.57 23.05,398.63 65.69,455.89 38.96,52.33 398.15,78.95 434.41,40.74 14.42,-15.2 67.29,-140.85 85.35,-173.9 80.65,-147.56 190.65,-367.76 322.34,-458.91 96.16,-66.57 246.42,-109.04 317.89,-197.28 101.3,-125.06 153.88,-684.75 179.56,-870.85 21.12,-153.04 44.33,-312.03 54.45,-466.01zm-698.27 -529.1c233.66,24.02 418.73,82.27 631.95,169.67 92.2,37.8 102.9,70.51 101.88,169.68 -2.92,281.33 -95.64,1149.9 -177.05,1443.06 -27.6,99.38 -42.55,95.8 -122.26,147.82 -60.1,39.21 -110.54,63.69 -174.77,94.11 -138.78,65.75 -199.39,130.6 -275.3,264.84 -53.1,93.89 -149.21,263.34 -179.51,361.65 -27.11,87.92 -44.93,121.3 -142.5,120.99 -83.83,-0.27 -170.34,-4.19 -253.13,-17.52 -167.74,-27.03 -158.84,-14.99 -193.99,-346.39 -18.12,-170.83 -19.91,-346.63 -21.08,-518.4 -1.28,-187.66 7.25,-311.56 51.93,-493.81 92.05,-375.46 261.85,-841.28 414.57,-1204.07 14.99,-35.62 62.7,-169.55 86.62,-184.37 40.44,-25.05 200.67,-12.6 252.64,-7.26z"/>
    <path class="fil35" d="M10005.82 5569.67c-260.86,-22.82 -276.59,88.45 -367.08,301.94 -53.56,126.37 -368.7,967.52 -295.35,1041.19 26.83,26.95 514,79.78 584.18,86.88 99.19,10.03 202.59,29.38 301.86,32.32 187.16,5.55 212.8,30.26 220.45,-109.49 5.29,-96.74 27.98,-203.8 39.38,-302.33 11.74,-101.36 19.14,-205.88 32.91,-306.52 13.01,-95.13 29.48,-213.29 33.15,-308.11 4.48,-115.86 48.43,-182.36 -41.86,-270.59 -104.4,-102.02 -365.19,-152.83 -507.64,-165.29zm-26.23 -62.86c138.68,18.15 430.47,86.92 535.28,179.52 93.68,82.78 93.52,152.3 87.99,271.6 -11.18,241.38 -29.53,421.19 -68.24,659.39 -16.49,101.46 -43.34,214.07 -49.86,315.15 -11.33,175.45 -72.01,143.44 -214.03,140.89 -106.73,-1.9 -217.19,-19.77 -323.22,-34.16 -85.89,-11.66 -582.25,-63.24 -622.52,-89.64 -69.73,-45.72 -7.81,-216.44 6.55,-290.39 52.94,-272.69 156.79,-575.08 261.7,-828.18 82.64,-199.36 133.71,-357.23 386.35,-324.18z"/>
    <path class="fil41" d="M6976.93 8965.8c-15.45,68.85 -51.91,14.01 -49.98,121.68 1.1,60.94 40.98,5.19 19.1,138.69l-18.33 3.75c-50.81,11.61 -200.47,-25.58 -248.81,-50.69 -78.72,-40.92 -68.01,-140.66 -90.06,-208.56 -18.36,-3.7 -128.69,-0.43 -149.16,6.5 -42.15,14.27 -50.3,62.67 -49.29,104.22 3.61,147.53 93.27,102.19 194.78,91.52l-7.94 27.26c4.28,41.34 -72.25,110.26 -109.47,125.44 -87.75,35.79 -212.37,-75.83 -201.03,-268.18 2.13,-36.21 9.7,-66.91 19.94,-100.24 11.36,-36.99 34.28,-57.62 24.99,-87.01l48.73 52.59c30.27,32.77 100.56,37.21 146.95,40.48l469.58 2.55z"/>
    <path class="fil35" d="M11170.39 6183.04c15.08,-138.74 -62.01,-198.56 -170.31,-262.89 -156.87,-93.18 -203.51,-34.24 -236.68,118.78 -38.05,175.52 -88.89,572.68 -112.11,762.86 -8.97,73.54 -7.68,135.6 2.68,208.62 10.05,70.8 62.08,83.09 128.48,90.5 36.99,4.12 177.87,6.91 205.52,-11.32 22.46,-14.79 35.45,-142.28 42.34,-176.69 31.53,-157.54 126.18,-602.04 140.08,-729.86zm-251.41 -347.28c102.64,18.68 231.11,102.24 275.37,200.12 43.21,95.59 -9.28,309.44 -33.66,413.17 -33.2,141.19 -96.62,447.99 -121.21,597.99 -14.79,90.2 -67.69,92.41 -146.36,93.92 -138.79,2.66 -296,4.82 -294.57,-183.04 0.86,-113.73 77.38,-737.73 99.08,-867.85 23.98,-143.83 31.59,-288.85 221.35,-254.31z"/>
    <path class="fil35" d="M9358.68 5603.38c15.13,-60.58 0.26,-71.39 -54.93,-62.24 -84.78,14.03 -225.42,56.84 -297.31,95.72 -111.25,60.17 -162.6,206.33 -205.49,318.45 -50.19,131.25 -224.38,718.4 -224.89,831.42 -0.39,89.04 136.51,61.98 193.9,64.32 96.63,3.92 144.96,15.75 174.98,-88.39 37.03,-128.43 90.8,-262.56 131.55,-391.77l241.91 -677.14c7.31,-15.51 37.31,-78.49 40.28,-90.37zm-4.22 -98.19c75.98,37.93 18.78,139.83 -7.74,194.06l-149.99 410.04c-42.26,114.19 -97.59,300.74 -138.59,420.93 -23.59,69.16 -50.26,141.86 -71.67,211.19 -30.86,99.88 -22.89,135.76 -140.62,141.35 -334.09,15.88 -325.46,-9.59 -279.84,-222.48 49.98,-233.29 93.35,-444.17 168.53,-673.79 22.65,-69.21 46.56,-135.23 72.78,-203.08 34.65,-89.7 39.78,-108.64 125.22,-156.92 79.91,-45.15 341.75,-161.31 421.92,-121.3z"/>
    <path class="fil33" d="M6700.69 8676.71c3.67,28.73 57.08,226.75 68.53,247.79l204.79 -5.46c-23.46,17.73 -455.26,26.23 -557.14,-12.63 -77.2,-29.44 -101.71,-95.92 -139.33,-164.82 -24.04,-44.02 -90.6,-158.53 -102.07,-199.56 12.4,3.22 149.34,76.69 229.79,103.94 58.71,19.89 234.54,40.23 295.43,30.74z"/>
    <path class="fil42" d="M8001.16 7221.59l-9.17 65.65c-24.08,-13.21 -200.59,-30.51 -234.05,-24.06 -25.44,51.69 8.71,202.36 19.32,265.45 14.54,86.5 -72.08,119.75 299.45,176.36 176.65,26.92 377.59,70.1 562.5,101.16 12.92,2.17 28.79,5.28 40.49,8.67 21.79,6.32 11.4,14.26 33.8,1.43 16.49,-48.18 -7.92,-185.97 -21.29,-239.12 -30.75,-122.17 -29.89,-94.81 -131.26,-135.18 -59.04,-23.52 -369.65,-118.9 -409.75,-105.78 0.66,-23.3 -0.31,-53.57 8.96,-72.06 125.25,19.19 334.53,93.9 453.76,141.85 88.95,35.77 99.75,89.38 119.44,180.26 12.52,57.77 40.61,229.6 -6.81,267.63 -30.13,7.75 -354.33,-65.17 -412.81,-76.98 -137.92,-27.85 -284.41,-42.73 -419.66,-76.25 -66.07,-16.39 -141.34,-7.54 -153.31,-91.31 -9.95,-69.6 -23.06,-156.43 -28.34,-225.53 -4.96,-64.96 -28.23,-178.71 62.5,-182.53 70,-2.95 179.83,25.19 226.23,20.34z"/>
    <path class="fil31" d="M7050.42 7498.76c-50.06,-21.9 -73.69,-43.75 -114.18,25.56 -53.56,91.7 40.62,290.94 123.78,220.23 47.69,-40.55 37.77,-112.07 35.58,-168.1 -69.23,0.07 -57.3,-20.91 -45.18,-77.69zm-33.65 -148.8c257.98,79.16 182.93,606.43 -6.76,552.46 -85.57,-24.34 -156.5,-200.06 -163.93,-281.91 -8.4,-92.41 52.19,-306.9 170.69,-270.55z"/>
    <path class="fil43" d="M7016.77 7349.96c-118.5,-36.35 -179.09,178.14 -170.69,270.55 7.43,81.85 78.36,257.57 163.93,281.91 189.69,53.97 264.74,-473.3 6.76,-552.46zm71.61 -85.65l-32.23 0.31 46.56 40.59c17.8,38.31 56.15,68.35 78.23,109.42 21.69,40.37 40.79,88.66 45.96,135.01 18.04,161.38 -19.03,201.99 -48.2,314.29 -16.43,22.89 -30.64,41.5 -51.86,61 -23.05,21.19 -54.82,28.36 -74.47,47.92l89.66 -11.42c-38.38,27.2 -104.49,19.19 -142.37,-1.81 -42.86,-23.74 -67.13,-35.99 -101.17,-74.48 -46.64,-52.74 -93.23,-176.67 -103.72,-247.97 -28.38,-192.8 80.3,-415.3 219.09,-391.92l74.52 19.06z"/>
    <path class="fil43" d="M5908.33 7830.39c-53.52,7.6 -13.19,72.31 -155.9,106.35 77.6,1.81 101.4,-9.06 171.58,-28.71 -3.67,-23.55 -5.08,-58.45 -15.68,-77.64zm-378.06 -263.77l0 33.58c0.31,4.47 0.75,8.77 1.35,12.85 13.11,88.79 57.71,213.96 125.19,274.91 35.1,31.7 80.48,59.91 125.12,60.7 99.16,1.75 119.06,-34.61 149.64,-26.65 -33.75,-90.99 -31.36,-298.22 -16.08,-401.16 17.52,-80.82 -122.03,-189.34 -135.64,-214.26 150.2,28.38 87.9,31.1 151.63,51.04 18.54,-24.44 22.78,-71.44 23.35,-104 -17.33,13.96 -22.65,60.8 -23.24,88.73 -20.08,-1.95 -51.7,-22.46 -76.11,-29.07 -29.46,-7.98 -51.18,-12.03 -80.66,-18.53 -19.59,-4.32 -73.94,-42.19 -139.38,24.42 -36.13,36.79 -60.99,69.82 -79.56,120.2 -12.22,33.12 -23.15,83.51 -25.61,127.24zm62.71 59.65c7.91,74.6 62.48,235.03 146.99,249.95 189.7,33.52 202.94,-453.19 -1.01,-494.25 -111.46,-22.45 -154.55,163.45 -145.98,244.3z"/>
    <path class="fil44" d="M5777.5 7519.8c-97.7,-75.7 -138.37,74.85 -93.22,169.07 41.17,85.91 149.43,103.11 133.79,-101.97 -62.65,-6.28 -50.49,-13.37 -40.57,-67.1zm-184.52 106.47c-8.57,-80.85 34.52,-266.75 145.98,-244.3 203.95,41.06 190.71,527.77 1.01,494.25 -84.51,-14.92 -139.08,-175.35 -146.99,-249.95z"/>
    <path class="fil36" d="M8312.82 5451.9l-65.57 -8.28c-4.39,-42.64 99.41,-483.26 164.02,-583.72 29.89,-46.45 108.08,-97.49 163.81,-69.88 63.89,31.66 40.6,134.92 8.78,180.55 -58.83,84.39 -100.45,13.23 -154.27,97.44 -44.95,70.31 -88.36,293.24 -116.77,383.89z"/>
    <path class="fil45" d="M11326.75 7808.64c-50.58,-18.39 -129.17,-97.02 -278.4,-128.5 -107,-22.58 -243.26,6.08 -348.76,32.99 -112.39,28.66 -176.57,57.79 -259.48,138.68 -35,34.15 -167.08,202.6 -188.47,213.93 18.15,-77.59 114.63,-204.49 166.75,-265.56 138.25,-161.96 468.9,-235.49 646.73,-170.7 66.25,24.15 233.88,116.12 261.63,179.16z"/>
    <path class="fil39" d="M8808.51 7342.91c-11.2,4.8 -239.54,-86.29 -274.03,-98.57 -37.94,-13.5 -272.56,-89.48 -281.86,-102.27 25.26,-41.91 -3.65,-74.43 7.74,-125.53 81.9,20.85 227.5,95.65 305.8,136.47 71.8,37.43 221.48,108.55 242.35,189.9z"/>
    <path class="fil46" d="M7178.7 7863.93c29.17,-112.3 66.24,-152.91 48.2,-314.29 -5.17,-46.35 -24.27,-94.64 -45.96,-135.01 -22.08,-41.07 -60.43,-71.11 -78.23,-109.42 111.64,3.16 228.6,125.28 236.62,238.06 4.37,61.62 -1.49,151.25 -31.72,204.88 -27.1,48.06 -72.45,104.92 -128.91,115.78z"/>
    <path class="fil47" d="M6593.09 9126.21c-2,-37.99 -24.75,-68.83 -25.91,-123.59 -63.65,-14.55 -139.72,-5 -130.34,78.71 8.81,78.73 103.09,52.47 156.25,44.88zm334.63 103.71c-12.27,29.75 -6.47,41.41 -13.82,62.78 -85.53,13.12 -214.38,-40.71 -262.64,-91.21 -56.72,-59.33 -57.21,-16.82 -74.02,-1.32l7.94 -27.26c-101.51,10.67 -191.17,56.01 -194.78,-91.52 -1.01,-41.55 7.14,-89.95 49.29,-104.22 20.47,-6.93 130.8,-10.2 149.16,-6.5 22.05,67.9 11.34,167.64 90.06,208.56 48.34,25.11 198,62.3 248.81,50.69z"/>
    <path class="fil48" d="M7142.03 7961.43l-89.66 11.42c19.65,-19.56 51.42,-26.73 74.47,-47.92 21.22,-19.5 35.43,-38.11 51.86,-61 56.46,-10.86 101.81,-67.72 128.91,-115.78 30.23,-53.63 36.09,-143.26 31.72,-204.88 -8.02,-112.78 -124.98,-234.9 -236.62,-238.06l-46.56 -40.59 32.23 -0.31c163.94,27.61 286.8,145.67 291.49,320.44 4.3,160.67 -67.81,346.69 -237.84,376.68z"/>
    <path class="fil49" d="M9237 8543.07c-15.68,-40.8 -2.36,-98.35 48.29,-68.9 37.35,21.71 13.16,30.39 101.82,38.56 29.74,2.75 105.91,4.61 131.71,-5.71 20.46,-8.18 61.63,-61.85 84.02,-6.38 15.84,39.28 -1.58,78.42 -32.44,99.5 -36.62,25.03 -81.9,18.67 -125.69,17 -77.28,-2.94 -176.38,7.44 -207.71,-74.07z"/>
    <path class="fil50" d="M6478.74 7578.95c-44.31,62.49 -459.81,80.98 -495.41,17.74 18.91,-54.81 187.89,-56.07 239.08,-57.45 53.63,-1.45 243.75,-26.42 256.33,39.71z"/>
    <path class="fil49" d="M9256.47 8961.11c-12.45,-29.7 -12.06,-103.01 38.81,-83.73 43.34,16.42 14.39,33.06 95.66,41.7 27.89,2.97 98.37,6.16 123.58,-2.41 25.26,-8.58 56.14,-57.99 81.79,-12.81 19.28,33.97 5.01,78.99 -23.25,100.97 -49.92,38.82 -284.5,32.86 -316.59,-43.72z"/>
    <path class="fil50" d="M6478.12 7814.43c-0.54,59.86 -46.58,56.54 -91.88,60.13 -79.18,6.28 -343.41,29.65 -386.11,-29.21 23.54,-66.58 411.39,-76.61 477.99,-30.92z"/>
    <path class="fil50" d="M6375.5 7298.9c24.01,4.75 91.96,10.12 104.1,36.27 30.46,65.6 -334.76,55.04 -367.7,54.38 -25.1,-0.49 -117.04,9.43 -101.37,-31.45 7.63,-19.87 75.95,-42.47 97.6,-47.99 63.75,-16.26 204.13,-23.72 267.37,-11.21z"/>
    <path class="fil45" d="M8058.72 8570.58c-27,-9.22 -63.74,-39.61 -99.36,-55.45 -34.35,-15.27 -71.32,-29.82 -108.59,-36.9 -73.51,-13.97 -175.4,6.61 -247.2,25.32 -239.83,62.47 -246.53,202.84 -332.3,251.32 16.73,-60.41 85.64,-151.92 128.3,-197.73 99.63,-106.97 330.95,-162.35 469.71,-115.2 58.46,19.85 161.77,72.68 189.44,128.64z"/>
    <path class="fil29" d="M7050.42 7498.76c-12.12,56.78 -24.05,77.76 45.18,77.69 2.19,56.03 12.11,127.55 -35.58,168.1 -83.16,70.71 -177.34,-128.53 -123.78,-220.23 40.49,-69.31 64.12,-47.46 114.18,-25.56z"/>
    <path class="fil50" d="M6487.98 8082.12c14.73,72.53 -143.66,70.11 -189.95,70.7 -68.4,0.88 -161.63,6.19 -217.86,-39.01 -90.78,-72.95 153.93,-58.45 177.14,-57.25 64.23,3.34 177.7,-2.72 230.67,25.56z"/>
    <path class="fil50" d="M6519.78 7129.92c-34.48,32.15 -195.68,20.55 -248.64,24.85 -42.06,3.43 -82.01,6.07 -124.35,7.93 -171.19,7.53 -8.76,-93.39 168.44,-103.75 54.32,-3.18 201.71,-3.83 204.55,70.97z"/>
    <path class="fil36" d="M8110.89 7182.65c5.44,51.46 -9.24,152.37 -9.56,212.94 -0.24,43.95 1.08,165.95 -74.29,142.38 -56.7,-17.72 -16.12,-126.71 -8.5,-167.79 11.23,-60.49 8.26,-140.79 21.37,-195.59 16.16,-6.47 50.12,0.69 70.98,8.06z"/>
    <path class="fil50" d="M6165.15 8359.34c-54.78,-66.56 104.99,-33.7 179.41,-32.26 40.92,0.79 194.58,-23.9 191.02,37.97 -2.4,41.75 -49.35,38.22 -80.51,41.87 -77.42,9.08 -239.55,13.62 -289.92,-47.58z"/>
    <path class="fil29" d="M5777.5 7519.8c-9.92,53.73 -22.08,60.82 40.57,67.1 15.64,205.08 -92.62,187.88 -133.79,101.97 -45.15,-94.22 -4.48,-244.77 93.22,-169.07z"/>
    <path class="fil51" d="M11061.65 8868.39c-21.95,165.71 -137.56,125.2 -145.85,-6.37 -2.75,-43.63 32.06,-112.86 75.97,-112 51.37,1.02 76.17,70.79 69.88,118.37z"/>
    <path class="fil52" d="M6558.12 6854.02l3.86 32.2c-42.94,7.25 -135.93,6.39 -182.53,8.3 -57.36,2.35 -118.92,15.38 -170.26,-7.54 -0.78,-34.96 35.26,-36.95 64.95,-47.77 31,-11.31 63.15,-18.83 95.74,-23.42 42.4,-5.96 172.53,-7.9 188.24,38.23z"/>
    <path class="fil53" d="M11061.65 8868.39c6.29,-47.58 -18.51,-117.35 -69.88,-118.37 -43.91,-0.86 -78.72,68.37 -75.97,112 8.29,131.57 123.9,172.08 145.85,6.37zm-55.94 -146.1c136.67,59.71 101.03,335.8 -35.05,298.09 -138.07,-38.25 -70.69,-344.29 35.05,-298.09z"/>
    <path class="fil41" d="M6593.09 9126.21c-53.16,7.59 -147.44,33.85 -156.25,-44.88 -9.38,-83.71 66.69,-93.26 130.34,-78.71 1.16,54.76 23.91,85.6 25.91,123.59z"/>
    <path class="fil53" d="M7833.75 9344.76c64.12,-35.66 52.53,-149.7 -4.59,-142.72 -55.59,6.8 -57.19,122.61 4.59,142.72zm-65.4 -9.09c-38.41,-80.14 61.75,-258.5 125.22,-108.19 55.84,132.22 -70.31,222.76 -125.22,108.19z"/>
    <path class="fil45" d="M11224.53 8764.26c45.37,-30.19 62.92,-103.35 0,-126.32 -54.56,32.4 -51.96,90.22 0,126.32zm21.08 -149.16c84.17,56.59 50.42,225.3 -38.99,188.11 -92.57,-38.49 -31.72,-235.66 38.99,-188.11z"/>
    <path class="fil53" d="M10980.33 8475.36c55.09,-36.33 46.16,-129.8 -4.74,-122.13 -53.42,8.04 -47.01,103.7 4.74,122.13zm11.43 -152.59c82.05,37.09 71.5,230.46 -31.41,193.46 -88.99,-32.01 -36.09,-223.98 31.41,-193.46z"/>
    <path class="fil53" d="M11202.08 9159.46c48.24,-27.38 53.07,-124.91 -1,-124.93 -50.89,-0.01 -56.19,105.11 1,124.93zm9.2 -155.09c79.33,31.65 80.02,217.22 -20.93,196.55 -97.62,-19.98 -49.23,-224.53 20.93,-196.55z"/>
    <path class="fil53" d="M10724.31 8722.64c52.07,-12.38 62.35,-114.14 9.65,-123.32 -47.62,-8.29 -65.67,85.1 -9.65,123.32zm22.1 -149.8c84.76,45.94 56.54,228.38 -34.95,190.59 -90.41,-37.33 -35.22,-228.62 34.95,-190.59z"/>
    <path class="fil53" d="M10712.68 9161.96c50.4,-29.12 50.67,-130.65 -5.44,-124.07 -50.75,5.95 -50.46,105.34 5.44,124.07zm11.3 -153.15c81.73,37.33 69.22,229.13 -31.11,193.25 -89.36,-31.97 -37.45,-224.57 31.11,-193.25z"/>
    <path class="fil53" d="M10950.79 9373.1c51.38,-16.5 59.72,-122.16 5.53,-125.64 -51.39,-3.3 -59.47,97.59 -5.53,125.64zm14.42 -153.84c90.66,40.55 66.02,227.55 -26.22,193.69 -91.84,-33.7 -40.54,-223.57 26.22,-193.69z"/>
    <path class="fil54" d="M7599.57 9485.89c-30.27,-65.8 44.31,-190.3 85.83,-87.38 48.77,120.91 -63.31,136.31 -85.83,87.38z"/>
    <path class="fil54" d="M7674.65 9070.39c49.92,37.07 50.41,178.12 -37.46,141.56 -63.43,-26.4 -16.97,-182 37.46,-141.56z"/>
    <path class="fil54" d="M8004.15 9095.26c51.49,28.13 60.63,166.16 -23.79,146.14 -75.77,-17.97 -29.93,-175.5 23.79,-146.14z"/>
    <path class="fil54" d="M8024.14 9471.71c-13.73,68.24 -136.36,42.67 -91.11,-69.7 38.89,-96.53 106.81,-8.28 91.11,69.7z"/>
    <path class="fil54" d="M7836.4 8905.28c65.49,36.71 52.51,173.86 -29.41,139.47 -63.47,-26.64 -21.24,-167.87 29.41,-139.47z"/>
    <path class="fil44" d="M6863.19 6804.96c-47.14,14.44 -83.1,2.6 -128.78,0.47 -42.46,-1.98 -111.01,19.31 -107.79,-36.82 50.63,-44.53 232.47,-17.74 236.57,36.35z"/>
    <path class="fil45" d="M7763.65 9619.59c-25.44,-50.1 37.58,-177.95 84.66,-79.48 47.21,98.76 -47.42,152.86 -84.66,79.48z"/>
    <path class="fil51" d="M7833.75 9344.76c-61.78,-20.11 -60.18,-135.92 -4.59,-142.72 57.12,-6.98 68.71,107.06 4.59,142.72z"/>
    <path class="fil55" d="M5931.48 7357.63c3.86,38.78 -23.79,120.41 -15.99,163.22 17.52,-80.82 -122.03,-189.34 -135.64,-214.26 150.2,28.38 87.9,31.1 151.63,51.04z"/>
    <path class="fil51" d="M10950.79 9373.1c-53.94,-28.05 -45.86,-128.94 5.53,-125.64 54.19,3.48 45.85,109.14 -5.53,125.64z"/>
    <path class="fil51" d="M10712.68 9161.96c-55.9,-18.73 -56.19,-118.12 -5.44,-124.07 56.11,-6.58 55.84,94.95 5.44,124.07z"/>
    <path class="fil51" d="M11202.08 9159.46c-57.19,-19.82 -51.89,-124.94 -1,-124.93 54.07,0.02 49.24,97.55 1,124.93z"/>
    <path class="fil51" d="M10724.31 8722.64c-56.02,-38.22 -37.97,-131.61 9.65,-123.32 52.7,9.18 42.42,110.94 -9.65,123.32z"/>
    <path class="fil51" d="M10980.33 8475.36c-51.75,-18.43 -58.16,-114.09 -4.74,-122.13 50.9,-7.67 59.83,85.8 4.74,122.13z"/>
    <path class="fil51" d="M11224.53 8764.26c-51.96,-36.1 -54.56,-93.92 0,-126.32 62.92,22.97 45.37,96.13 0,126.32z"/>
    <path class="fil48" d="M5908.33 7830.39c10.6,19.19 12.01,54.09 15.68,77.64 -70.18,19.65 -93.98,30.52 -171.58,28.71 142.71,-34.04 102.38,-98.75 155.9,-106.35z"/>
   </g>
  </g>
 </g>
</svg>
